G04 #@! TF.GenerationSoftware,KiCad,Pcbnew,(5.99.0-1822-g1792479ca)*
G04 #@! TF.CreationDate,2020-06-16T18:07:24+08:00*
G04 #@! TF.ProjectId,ai03-pad-duplicate,61693033-2d70-4616-942d-6475706c6963,v01*
G04 #@! TF.SameCoordinates,Original*
G04 #@! TF.FileFunction,Legend,Bot*
G04 #@! TF.FilePolarity,Positive*
%FSLAX46Y46*%
G04 Gerber Fmt 4.6, Leading zero omitted, Abs format (unit mm)*
G04 Created by KiCad (PCBNEW (5.99.0-1822-g1792479ca)) date 2020-06-16 18:07:24*
%MOMM*%
%LPD*%
G01*
G04 APERTURE LIST*
%ADD10C,0.150000*%
%ADD11C,0.120000*%
%ADD12O,1.800000X2.800000*%
%ADD13C,1.850000*%
%ADD14C,2.350000*%
%ADD15C,4.087800*%
G04 APERTURE END LIST*
D10*
G04 #@! TO.C,Y1*
X73748070Y-169357190D02*
X73748070Y-169833380D01*
X74081403Y-168833380D02*
X73748070Y-169357190D01*
X73414737Y-168833380D01*
X72557594Y-169833380D02*
X73129022Y-169833380D01*
X72843308Y-169833380D02*
X72843308Y-168833380D01*
X72938546Y-168976238D01*
X73033784Y-169071476D01*
X73129022Y-169119095D01*
G04 #@! TO.C,USB1*
X99820095Y-138098380D02*
X99820095Y-138907904D01*
X99772476Y-139003142D01*
X99724857Y-139050761D01*
X99629619Y-139098380D01*
X99439142Y-139098380D01*
X99343904Y-139050761D01*
X99296285Y-139003142D01*
X99248666Y-138907904D01*
X99248666Y-138098380D01*
X98820095Y-139050761D02*
X98677238Y-139098380D01*
X98439142Y-139098380D01*
X98343904Y-139050761D01*
X98296285Y-139003142D01*
X98248666Y-138907904D01*
X98248666Y-138812666D01*
X98296285Y-138717428D01*
X98343904Y-138669809D01*
X98439142Y-138622190D01*
X98629619Y-138574571D01*
X98724857Y-138526952D01*
X98772476Y-138479333D01*
X98820095Y-138384095D01*
X98820095Y-138288857D01*
X98772476Y-138193619D01*
X98724857Y-138146000D01*
X98629619Y-138098380D01*
X98391523Y-138098380D01*
X98248666Y-138146000D01*
X97486761Y-138574571D02*
X97343904Y-138622190D01*
X97296285Y-138669809D01*
X97248666Y-138765047D01*
X97248666Y-138907904D01*
X97296285Y-139003142D01*
X97343904Y-139050761D01*
X97439142Y-139098380D01*
X97820095Y-139098380D01*
X97820095Y-138098380D01*
X97486761Y-138098380D01*
X97391523Y-138146000D01*
X97343904Y-138193619D01*
X97296285Y-138288857D01*
X97296285Y-138384095D01*
X97343904Y-138479333D01*
X97391523Y-138526952D01*
X97486761Y-138574571D01*
X97820095Y-138574571D01*
X96296285Y-139098380D02*
X96867714Y-139098380D01*
X96582000Y-139098380D02*
X96582000Y-138098380D01*
X96677238Y-138241238D01*
X96772476Y-138336476D01*
X96867714Y-138384095D01*
G04 #@! TO.C,U1*
X81533904Y-144021380D02*
X81533904Y-144830904D01*
X81486285Y-144926142D01*
X81438666Y-144973761D01*
X81343428Y-145021380D01*
X81152952Y-145021380D01*
X81057714Y-144973761D01*
X81010095Y-144926142D01*
X80962476Y-144830904D01*
X80962476Y-144021380D01*
X79962476Y-145021380D02*
X80533904Y-145021380D01*
X80248190Y-145021380D02*
X80248190Y-144021380D01*
X80343428Y-144164238D01*
X80438666Y-144259476D01*
X80533904Y-144307095D01*
G04 #@! TO.C,SW1*
X99885333Y-177061761D02*
X99742476Y-177109380D01*
X99504380Y-177109380D01*
X99409142Y-177061761D01*
X99361523Y-177014142D01*
X99313904Y-176918904D01*
X99313904Y-176823666D01*
X99361523Y-176728428D01*
X99409142Y-176680809D01*
X99504380Y-176633190D01*
X99694857Y-176585571D01*
X99790095Y-176537952D01*
X99837714Y-176490333D01*
X99885333Y-176395095D01*
X99885333Y-176299857D01*
X99837714Y-176204619D01*
X99790095Y-176157000D01*
X99694857Y-176109380D01*
X99456761Y-176109380D01*
X99313904Y-176157000D01*
X98980571Y-176109380D02*
X98742476Y-177109380D01*
X98552000Y-176395095D01*
X98361523Y-177109380D01*
X98123428Y-176109380D01*
X97218666Y-177109380D02*
X97790095Y-177109380D01*
X97504380Y-177109380D02*
X97504380Y-176109380D01*
X97599619Y-176252238D01*
X97694857Y-176347476D01*
X97790095Y-176395095D01*
G04 #@! TO.C,R4*
X71698380Y-146772333D02*
X71222190Y-146439000D01*
X71698380Y-146200904D02*
X70698380Y-146200904D01*
X70698380Y-146581857D01*
X70746000Y-146677095D01*
X70793619Y-146724714D01*
X70888857Y-146772333D01*
X71031714Y-146772333D01*
X71126952Y-146724714D01*
X71174571Y-146677095D01*
X71222190Y-146581857D01*
X71222190Y-146200904D01*
X71031714Y-147629476D02*
X71698380Y-147629476D01*
X70650761Y-147391380D02*
X71365047Y-147153285D01*
X71365047Y-147772333D01*
G04 #@! TO.C,R3*
X94558380Y-161250333D02*
X94082190Y-160917000D01*
X94558380Y-160678904D02*
X93558380Y-160678904D01*
X93558380Y-161059857D01*
X93606000Y-161155095D01*
X93653619Y-161202714D01*
X93748857Y-161250333D01*
X93891714Y-161250333D01*
X93986952Y-161202714D01*
X94034571Y-161155095D01*
X94082190Y-161059857D01*
X94082190Y-160678904D01*
X93558380Y-161583666D02*
X93558380Y-162202714D01*
X93939333Y-161869380D01*
X93939333Y-162012238D01*
X93986952Y-162107476D01*
X94034571Y-162155095D01*
X94129809Y-162202714D01*
X94367904Y-162202714D01*
X94463142Y-162155095D01*
X94510761Y-162107476D01*
X94558380Y-162012238D01*
X94558380Y-161726523D01*
X94510761Y-161631285D01*
X94463142Y-161583666D01*
G04 #@! TO.C,R2*
X101962380Y-148131333D02*
X101486190Y-147798000D01*
X101962380Y-147559904D02*
X100962380Y-147559904D01*
X100962380Y-147940857D01*
X101010000Y-148036095D01*
X101057619Y-148083714D01*
X101152857Y-148131333D01*
X101295714Y-148131333D01*
X101390952Y-148083714D01*
X101438571Y-148036095D01*
X101486190Y-147940857D01*
X101486190Y-147559904D01*
X101057619Y-148512285D02*
X101010000Y-148559904D01*
X100962380Y-148655142D01*
X100962380Y-148893238D01*
X101010000Y-148988476D01*
X101057619Y-149036095D01*
X101152857Y-149083714D01*
X101248095Y-149083714D01*
X101390952Y-149036095D01*
X101962380Y-148464666D01*
X101962380Y-149083714D01*
G04 #@! TO.C,R1*
X95614380Y-148131333D02*
X95138190Y-147798000D01*
X95614380Y-147559904D02*
X94614380Y-147559904D01*
X94614380Y-147940857D01*
X94662000Y-148036095D01*
X94709619Y-148083714D01*
X94804857Y-148131333D01*
X94947714Y-148131333D01*
X95042952Y-148083714D01*
X95090571Y-148036095D01*
X95138190Y-147940857D01*
X95138190Y-147559904D01*
X95614380Y-149083714D02*
X95614380Y-148512285D01*
X95614380Y-148798000D02*
X94614380Y-148798000D01*
X94757238Y-148702761D01*
X94852476Y-148607523D01*
X94900095Y-148512285D01*
G04 #@! TO.C,F1*
X91791571Y-141779666D02*
X91791571Y-141446333D01*
X92315380Y-141446333D02*
X91315380Y-141446333D01*
X91315380Y-141922523D01*
X92315380Y-142827285D02*
X92315380Y-142255857D01*
X92315380Y-142541571D02*
X91315380Y-142541571D01*
X91458238Y-142446333D01*
X91553476Y-142351095D01*
X91601095Y-142255857D01*
G04 #@! TO.C,D4*
X140692095Y-172823380D02*
X140692095Y-171823380D01*
X140454000Y-171823380D01*
X140311142Y-171871000D01*
X140215904Y-171966238D01*
X140168285Y-172061476D01*
X140120666Y-172251952D01*
X140120666Y-172394809D01*
X140168285Y-172585285D01*
X140215904Y-172680523D01*
X140311142Y-172775761D01*
X140454000Y-172823380D01*
X140692095Y-172823380D01*
X139263523Y-172156714D02*
X139263523Y-172823380D01*
X139501619Y-171775761D02*
X139739714Y-172490047D01*
X139120666Y-172490047D01*
G04 #@! TO.C,D3*
X140692095Y-153773380D02*
X140692095Y-152773380D01*
X140454000Y-152773380D01*
X140311142Y-152821000D01*
X140215904Y-152916238D01*
X140168285Y-153011476D01*
X140120666Y-153201952D01*
X140120666Y-153344809D01*
X140168285Y-153535285D01*
X140215904Y-153630523D01*
X140311142Y-153725761D01*
X140454000Y-153773380D01*
X140692095Y-153773380D01*
X139787333Y-152773380D02*
X139168285Y-152773380D01*
X139501619Y-153154333D01*
X139358761Y-153154333D01*
X139263523Y-153201952D01*
X139215904Y-153249571D01*
X139168285Y-153344809D01*
X139168285Y-153582904D01*
X139215904Y-153678142D01*
X139263523Y-153725761D01*
X139358761Y-153773380D01*
X139644476Y-153773380D01*
X139739714Y-153725761D01*
X139787333Y-153678142D01*
G04 #@! TO.C,D2*
X121642095Y-172823380D02*
X121642095Y-171823380D01*
X121404000Y-171823380D01*
X121261142Y-171871000D01*
X121165904Y-171966238D01*
X121118285Y-172061476D01*
X121070666Y-172251952D01*
X121070666Y-172394809D01*
X121118285Y-172585285D01*
X121165904Y-172680523D01*
X121261142Y-172775761D01*
X121404000Y-172823380D01*
X121642095Y-172823380D01*
X120689714Y-171918619D02*
X120642095Y-171871000D01*
X120546857Y-171823380D01*
X120308761Y-171823380D01*
X120213523Y-171871000D01*
X120165904Y-171918619D01*
X120118285Y-172013857D01*
X120118285Y-172109095D01*
X120165904Y-172251952D01*
X120737333Y-172823380D01*
X120118285Y-172823380D01*
G04 #@! TO.C,D1*
X121642095Y-153773380D02*
X121642095Y-152773380D01*
X121404000Y-152773380D01*
X121261142Y-152821000D01*
X121165904Y-152916238D01*
X121118285Y-153011476D01*
X121070666Y-153201952D01*
X121070666Y-153344809D01*
X121118285Y-153535285D01*
X121165904Y-153630523D01*
X121261142Y-153725761D01*
X121404000Y-153773380D01*
X121642095Y-153773380D01*
X120118285Y-153773380D02*
X120689714Y-153773380D01*
X120404000Y-153773380D02*
X120404000Y-152773380D01*
X120499238Y-152916238D01*
X120594476Y-153011476D01*
X120689714Y-153059095D01*
G04 #@! TO.C,C7*
X84240666Y-139550142D02*
X84288285Y-139597761D01*
X84431142Y-139645380D01*
X84526380Y-139645380D01*
X84669238Y-139597761D01*
X84764476Y-139502523D01*
X84812095Y-139407285D01*
X84859714Y-139216809D01*
X84859714Y-139073952D01*
X84812095Y-138883476D01*
X84764476Y-138788238D01*
X84669238Y-138693000D01*
X84526380Y-138645380D01*
X84431142Y-138645380D01*
X84288285Y-138693000D01*
X84240666Y-138740619D01*
X83907333Y-138645380D02*
X83240666Y-138645380D01*
X83669238Y-139645380D01*
G04 #@! TO.C,C6*
X75858666Y-142850142D02*
X75906285Y-142897761D01*
X76049142Y-142945380D01*
X76144380Y-142945380D01*
X76287238Y-142897761D01*
X76382476Y-142802523D01*
X76430095Y-142707285D01*
X76477714Y-142516809D01*
X76477714Y-142373952D01*
X76430095Y-142183476D01*
X76382476Y-142088238D01*
X76287238Y-141993000D01*
X76144380Y-141945380D01*
X76049142Y-141945380D01*
X75906285Y-141993000D01*
X75858666Y-142040619D01*
X75001523Y-141945380D02*
X75192000Y-141945380D01*
X75287238Y-141993000D01*
X75334857Y-142040619D01*
X75430095Y-142183476D01*
X75477714Y-142373952D01*
X75477714Y-142754904D01*
X75430095Y-142850142D01*
X75382476Y-142897761D01*
X75287238Y-142945380D01*
X75096761Y-142945380D01*
X75001523Y-142897761D01*
X74953904Y-142850142D01*
X74906285Y-142754904D01*
X74906285Y-142516809D01*
X74953904Y-142421571D01*
X75001523Y-142373952D01*
X75096761Y-142326333D01*
X75287238Y-142326333D01*
X75382476Y-142373952D01*
X75430095Y-142421571D01*
X75477714Y-142516809D01*
G04 #@! TO.C,C5*
X68303142Y-156170333D02*
X68350761Y-156122714D01*
X68398380Y-155979857D01*
X68398380Y-155884619D01*
X68350761Y-155741761D01*
X68255523Y-155646523D01*
X68160285Y-155598904D01*
X67969809Y-155551285D01*
X67826952Y-155551285D01*
X67636476Y-155598904D01*
X67541238Y-155646523D01*
X67446000Y-155741761D01*
X67398380Y-155884619D01*
X67398380Y-155979857D01*
X67446000Y-156122714D01*
X67493619Y-156170333D01*
X67398380Y-157075095D02*
X67398380Y-156598904D01*
X67874571Y-156551285D01*
X67826952Y-156598904D01*
X67779333Y-156694142D01*
X67779333Y-156932238D01*
X67826952Y-157027476D01*
X67874571Y-157075095D01*
X67969809Y-157122714D01*
X68207904Y-157122714D01*
X68303142Y-157075095D01*
X68350761Y-157027476D01*
X68398380Y-156932238D01*
X68398380Y-156694142D01*
X68350761Y-156598904D01*
X68303142Y-156551285D01*
G04 #@! TO.C,C4*
X85575142Y-161250333D02*
X85622761Y-161202714D01*
X85670380Y-161059857D01*
X85670380Y-160964619D01*
X85622761Y-160821761D01*
X85527523Y-160726523D01*
X85432285Y-160678904D01*
X85241809Y-160631285D01*
X85098952Y-160631285D01*
X84908476Y-160678904D01*
X84813238Y-160726523D01*
X84718000Y-160821761D01*
X84670380Y-160964619D01*
X84670380Y-161059857D01*
X84718000Y-161202714D01*
X84765619Y-161250333D01*
X85003714Y-162107476D02*
X85670380Y-162107476D01*
X84622761Y-161869380D02*
X85337047Y-161631285D01*
X85337047Y-162250333D01*
G04 #@! TO.C,C3*
X91606666Y-153264142D02*
X91654285Y-153311761D01*
X91797142Y-153359380D01*
X91892380Y-153359380D01*
X92035238Y-153311761D01*
X92130476Y-153216523D01*
X92178095Y-153121285D01*
X92225714Y-152930809D01*
X92225714Y-152787952D01*
X92178095Y-152597476D01*
X92130476Y-152502238D01*
X92035238Y-152407000D01*
X91892380Y-152359380D01*
X91797142Y-152359380D01*
X91654285Y-152407000D01*
X91606666Y-152454619D01*
X91273333Y-152359380D02*
X90654285Y-152359380D01*
X90987619Y-152740333D01*
X90844761Y-152740333D01*
X90749523Y-152787952D01*
X90701904Y-152835571D01*
X90654285Y-152930809D01*
X90654285Y-153168904D01*
X90701904Y-153264142D01*
X90749523Y-153311761D01*
X90844761Y-153359380D01*
X91130476Y-153359380D01*
X91225714Y-153311761D01*
X91273333Y-153264142D01*
G04 #@! TO.C,C2*
X78969142Y-171664333D02*
X79016761Y-171616714D01*
X79064380Y-171473857D01*
X79064380Y-171378619D01*
X79016761Y-171235761D01*
X78921523Y-171140523D01*
X78826285Y-171092904D01*
X78635809Y-171045285D01*
X78492952Y-171045285D01*
X78302476Y-171092904D01*
X78207238Y-171140523D01*
X78112000Y-171235761D01*
X78064380Y-171378619D01*
X78064380Y-171473857D01*
X78112000Y-171616714D01*
X78159619Y-171664333D01*
X78159619Y-172045285D02*
X78112000Y-172092904D01*
X78064380Y-172188142D01*
X78064380Y-172426238D01*
X78112000Y-172521476D01*
X78159619Y-172569095D01*
X78254857Y-172616714D01*
X78350095Y-172616714D01*
X78492952Y-172569095D01*
X79064380Y-171997666D01*
X79064380Y-172616714D01*
G04 #@! TO.C,C1*
X68303142Y-171664333D02*
X68350761Y-171616714D01*
X68398380Y-171473857D01*
X68398380Y-171378619D01*
X68350761Y-171235761D01*
X68255523Y-171140523D01*
X68160285Y-171092904D01*
X67969809Y-171045285D01*
X67826952Y-171045285D01*
X67636476Y-171092904D01*
X67541238Y-171140523D01*
X67446000Y-171235761D01*
X67398380Y-171378619D01*
X67398380Y-171473857D01*
X67446000Y-171616714D01*
X67493619Y-171664333D01*
X68398380Y-172616714D02*
X68398380Y-172045285D01*
X68398380Y-172331000D02*
X67398380Y-172331000D01*
X67541238Y-172235761D01*
X67636476Y-172140523D01*
X67684095Y-172045285D01*
D11*
G04 #@! TO.C,Y1*
X75271880Y-173481000D02*
X71271880Y-173481000D01*
X75271880Y-170181000D02*
X75271880Y-173481000D01*
D10*
G04 #@! TO.C,USB1*
X94232000Y-136614000D02*
X94232000Y-142064000D01*
X101932000Y-136614000D02*
X101932000Y-142064000D01*
X94232000Y-142064000D02*
X101932000Y-142064000D01*
G04 #@! TO.C,U1*
X85947000Y-147419000D02*
X87222000Y-147419000D01*
X75597000Y-146844000D02*
X76272000Y-146844000D01*
X75597000Y-157194000D02*
X76272000Y-157194000D01*
X85947000Y-157194000D02*
X85272000Y-157194000D01*
X85947000Y-146844000D02*
X85272000Y-146844000D01*
X85947000Y-157194000D02*
X85947000Y-156519000D01*
X75597000Y-157194000D02*
X75597000Y-156519000D01*
X75597000Y-146844000D02*
X75597000Y-147519000D01*
X85947000Y-146844000D02*
X85947000Y-147419000D01*
G04 #@! TO.C,SW1*
X101152000Y-169993000D02*
X95952000Y-169993000D01*
X95952000Y-169993000D02*
X95952000Y-175193000D01*
X95952000Y-175193000D02*
X101152000Y-175193000D01*
X101152000Y-175193000D02*
X101152000Y-169993000D01*
X99552000Y-172593000D02*
G75*
G03*
X99552000Y-172593000I-1000000J0D01*
G01*
D11*
G04 #@! TO.C,R4*
X68886000Y-147197578D02*
X68886000Y-146680422D01*
X70306000Y-147197578D02*
X70306000Y-146680422D01*
G04 #@! TO.C,R3*
X91746000Y-161675578D02*
X91746000Y-161158422D01*
X93166000Y-161675578D02*
X93166000Y-161158422D01*
G04 #@! TO.C,R2*
X99150000Y-148556578D02*
X99150000Y-148039422D01*
X100570000Y-148556578D02*
X100570000Y-148039422D01*
G04 #@! TO.C,R1*
X97522000Y-148039422D02*
X97522000Y-148556578D01*
X96102000Y-148039422D02*
X96102000Y-148556578D01*
G04 #@! TO.C,F1*
X89133000Y-142715064D02*
X89133000Y-141510936D01*
X90953000Y-142715064D02*
X90953000Y-141510936D01*
G04 #@! TO.C,D4*
X142204000Y-173371000D02*
X138304000Y-173371000D01*
X142204000Y-175371000D02*
X138304000Y-175371000D01*
X142204000Y-173371000D02*
X142204000Y-175371000D01*
G04 #@! TO.C,D3*
X142204000Y-154321000D02*
X138304000Y-154321000D01*
X142204000Y-156321000D02*
X138304000Y-156321000D01*
X142204000Y-154321000D02*
X142204000Y-156321000D01*
G04 #@! TO.C,D2*
X123154000Y-173371000D02*
X119254000Y-173371000D01*
X123154000Y-175371000D02*
X119254000Y-175371000D01*
X123154000Y-173371000D02*
X123154000Y-175371000D01*
G04 #@! TO.C,D1*
X123154000Y-154321000D02*
X119254000Y-154321000D01*
X123154000Y-156321000D02*
X119254000Y-156321000D01*
X123154000Y-154321000D02*
X123154000Y-156321000D01*
G04 #@! TO.C,C7*
X84332578Y-141553000D02*
X83815422Y-141553000D01*
X84332578Y-140133000D02*
X83815422Y-140133000D01*
G04 #@! TO.C,C6*
X75433422Y-140133000D02*
X75950578Y-140133000D01*
X75433422Y-141553000D02*
X75950578Y-141553000D01*
G04 #@! TO.C,C5*
X70306000Y-156078422D02*
X70306000Y-156595578D01*
X68886000Y-156078422D02*
X68886000Y-156595578D01*
G04 #@! TO.C,C4*
X87578000Y-161158422D02*
X87578000Y-161675578D01*
X86158000Y-161158422D02*
X86158000Y-161675578D01*
G04 #@! TO.C,C3*
X91181422Y-150547000D02*
X91698578Y-150547000D01*
X91181422Y-151967000D02*
X91698578Y-151967000D01*
G04 #@! TO.C,C2*
X76252000Y-172089578D02*
X76252000Y-171572422D01*
X77672000Y-172089578D02*
X77672000Y-171572422D01*
G04 #@! TO.C,C1*
X70306000Y-171572422D02*
X70306000Y-172089578D01*
X68886000Y-171572422D02*
X68886000Y-172089578D01*
G04 #@! TD*
%LPC*%
G04 #@! TO.C,Y1*
G36*
G01*
X75121880Y-170381000D02*
X75121880Y-171581000D01*
G75*
G02*
X75071880Y-171631000I-50000J0D01*
G01*
X73671880Y-171631000D01*
G75*
G02*
X73621880Y-171581000I0J50000D01*
G01*
X73621880Y-170381000D01*
G75*
G02*
X73671880Y-170331000I50000J0D01*
G01*
X75071880Y-170331000D01*
G75*
G02*
X75121880Y-170381000I0J-50000D01*
G01*
G37*
G36*
G01*
X72921880Y-170381000D02*
X72921880Y-171581000D01*
G75*
G02*
X72871880Y-171631000I-50000J0D01*
G01*
X71471880Y-171631000D01*
G75*
G02*
X71421880Y-171581000I0J50000D01*
G01*
X71421880Y-170381000D01*
G75*
G02*
X71471880Y-170331000I50000J0D01*
G01*
X72871880Y-170331000D01*
G75*
G02*
X72921880Y-170381000I0J-50000D01*
G01*
G37*
G36*
G01*
X72921880Y-172081000D02*
X72921880Y-173281000D01*
G75*
G02*
X72871880Y-173331000I-50000J0D01*
G01*
X71471880Y-173331000D01*
G75*
G02*
X71421880Y-173281000I0J50000D01*
G01*
X71421880Y-172081000D01*
G75*
G02*
X71471880Y-172031000I50000J0D01*
G01*
X72871880Y-172031000D01*
G75*
G02*
X72921880Y-172081000I0J-50000D01*
G01*
G37*
G36*
G01*
X75121880Y-172081000D02*
X75121880Y-173281000D01*
G75*
G02*
X75071880Y-173331000I-50000J0D01*
G01*
X73671880Y-173331000D01*
G75*
G02*
X73621880Y-173281000I0J50000D01*
G01*
X73621880Y-172081000D01*
G75*
G02*
X73671880Y-172031000I50000J0D01*
G01*
X75071880Y-172031000D01*
G75*
G02*
X75121880Y-172081000I0J-50000D01*
G01*
G37*
G04 #@! TD*
D12*
G04 #@! TO.C,USB1*
X94432000Y-136614000D03*
X101732000Y-136614000D03*
X101732000Y-141114000D03*
X94432000Y-141114000D03*
G36*
G01*
X96232000Y-139939000D02*
X96732000Y-139939000D01*
G75*
G02*
X96782000Y-139989000I0J-50000D01*
G01*
X96782000Y-142239000D01*
G75*
G02*
X96732000Y-142289000I-50000J0D01*
G01*
X96232000Y-142289000D01*
G75*
G02*
X96182000Y-142239000I0J50000D01*
G01*
X96182000Y-139989000D01*
G75*
G02*
X96232000Y-139939000I50000J0D01*
G01*
G37*
G36*
G01*
X97032000Y-139939000D02*
X97532000Y-139939000D01*
G75*
G02*
X97582000Y-139989000I0J-50000D01*
G01*
X97582000Y-142239000D01*
G75*
G02*
X97532000Y-142289000I-50000J0D01*
G01*
X97032000Y-142289000D01*
G75*
G02*
X96982000Y-142239000I0J50000D01*
G01*
X96982000Y-139989000D01*
G75*
G02*
X97032000Y-139939000I50000J0D01*
G01*
G37*
G36*
G01*
X97832000Y-139939000D02*
X98332000Y-139939000D01*
G75*
G02*
X98382000Y-139989000I0J-50000D01*
G01*
X98382000Y-142239000D01*
G75*
G02*
X98332000Y-142289000I-50000J0D01*
G01*
X97832000Y-142289000D01*
G75*
G02*
X97782000Y-142239000I0J50000D01*
G01*
X97782000Y-139989000D01*
G75*
G02*
X97832000Y-139939000I50000J0D01*
G01*
G37*
G36*
G01*
X98632000Y-139939000D02*
X99132000Y-139939000D01*
G75*
G02*
X99182000Y-139989000I0J-50000D01*
G01*
X99182000Y-142239000D01*
G75*
G02*
X99132000Y-142289000I-50000J0D01*
G01*
X98632000Y-142289000D01*
G75*
G02*
X98582000Y-142239000I0J50000D01*
G01*
X98582000Y-139989000D01*
G75*
G02*
X98632000Y-139939000I50000J0D01*
G01*
G37*
G36*
G01*
X99432000Y-139939000D02*
X99932000Y-139939000D01*
G75*
G02*
X99982000Y-139989000I0J-50000D01*
G01*
X99982000Y-142239000D01*
G75*
G02*
X99932000Y-142289000I-50000J0D01*
G01*
X99432000Y-142289000D01*
G75*
G02*
X99382000Y-142239000I0J50000D01*
G01*
X99382000Y-139989000D01*
G75*
G02*
X99432000Y-139939000I50000J0D01*
G01*
G37*
G04 #@! TD*
G04 #@! TO.C,U1*
G36*
G01*
X85047000Y-147119000D02*
X84497000Y-147119000D01*
G75*
G02*
X84447000Y-147069000I0J50000D01*
G01*
X84447000Y-145569000D01*
G75*
G02*
X84497000Y-145519000I50000J0D01*
G01*
X85047000Y-145519000D01*
G75*
G02*
X85097000Y-145569000I0J-50000D01*
G01*
X85097000Y-147069000D01*
G75*
G02*
X85047000Y-147119000I-50000J0D01*
G01*
G37*
G36*
G01*
X84247000Y-147119000D02*
X83697000Y-147119000D01*
G75*
G02*
X83647000Y-147069000I0J50000D01*
G01*
X83647000Y-145569000D01*
G75*
G02*
X83697000Y-145519000I50000J0D01*
G01*
X84247000Y-145519000D01*
G75*
G02*
X84297000Y-145569000I0J-50000D01*
G01*
X84297000Y-147069000D01*
G75*
G02*
X84247000Y-147119000I-50000J0D01*
G01*
G37*
G36*
G01*
X83447000Y-147119000D02*
X82897000Y-147119000D01*
G75*
G02*
X82847000Y-147069000I0J50000D01*
G01*
X82847000Y-145569000D01*
G75*
G02*
X82897000Y-145519000I50000J0D01*
G01*
X83447000Y-145519000D01*
G75*
G02*
X83497000Y-145569000I0J-50000D01*
G01*
X83497000Y-147069000D01*
G75*
G02*
X83447000Y-147119000I-50000J0D01*
G01*
G37*
G36*
G01*
X82647000Y-147119000D02*
X82097000Y-147119000D01*
G75*
G02*
X82047000Y-147069000I0J50000D01*
G01*
X82047000Y-145569000D01*
G75*
G02*
X82097000Y-145519000I50000J0D01*
G01*
X82647000Y-145519000D01*
G75*
G02*
X82697000Y-145569000I0J-50000D01*
G01*
X82697000Y-147069000D01*
G75*
G02*
X82647000Y-147119000I-50000J0D01*
G01*
G37*
G36*
G01*
X81847000Y-147119000D02*
X81297000Y-147119000D01*
G75*
G02*
X81247000Y-147069000I0J50000D01*
G01*
X81247000Y-145569000D01*
G75*
G02*
X81297000Y-145519000I50000J0D01*
G01*
X81847000Y-145519000D01*
G75*
G02*
X81897000Y-145569000I0J-50000D01*
G01*
X81897000Y-147069000D01*
G75*
G02*
X81847000Y-147119000I-50000J0D01*
G01*
G37*
G36*
G01*
X81047000Y-147119000D02*
X80497000Y-147119000D01*
G75*
G02*
X80447000Y-147069000I0J50000D01*
G01*
X80447000Y-145569000D01*
G75*
G02*
X80497000Y-145519000I50000J0D01*
G01*
X81047000Y-145519000D01*
G75*
G02*
X81097000Y-145569000I0J-50000D01*
G01*
X81097000Y-147069000D01*
G75*
G02*
X81047000Y-147119000I-50000J0D01*
G01*
G37*
G36*
G01*
X80247000Y-147119000D02*
X79697000Y-147119000D01*
G75*
G02*
X79647000Y-147069000I0J50000D01*
G01*
X79647000Y-145569000D01*
G75*
G02*
X79697000Y-145519000I50000J0D01*
G01*
X80247000Y-145519000D01*
G75*
G02*
X80297000Y-145569000I0J-50000D01*
G01*
X80297000Y-147069000D01*
G75*
G02*
X80247000Y-147119000I-50000J0D01*
G01*
G37*
G36*
G01*
X79447000Y-147119000D02*
X78897000Y-147119000D01*
G75*
G02*
X78847000Y-147069000I0J50000D01*
G01*
X78847000Y-145569000D01*
G75*
G02*
X78897000Y-145519000I50000J0D01*
G01*
X79447000Y-145519000D01*
G75*
G02*
X79497000Y-145569000I0J-50000D01*
G01*
X79497000Y-147069000D01*
G75*
G02*
X79447000Y-147119000I-50000J0D01*
G01*
G37*
G36*
G01*
X78647000Y-147119000D02*
X78097000Y-147119000D01*
G75*
G02*
X78047000Y-147069000I0J50000D01*
G01*
X78047000Y-145569000D01*
G75*
G02*
X78097000Y-145519000I50000J0D01*
G01*
X78647000Y-145519000D01*
G75*
G02*
X78697000Y-145569000I0J-50000D01*
G01*
X78697000Y-147069000D01*
G75*
G02*
X78647000Y-147119000I-50000J0D01*
G01*
G37*
G36*
G01*
X77847000Y-147119000D02*
X77297000Y-147119000D01*
G75*
G02*
X77247000Y-147069000I0J50000D01*
G01*
X77247000Y-145569000D01*
G75*
G02*
X77297000Y-145519000I50000J0D01*
G01*
X77847000Y-145519000D01*
G75*
G02*
X77897000Y-145569000I0J-50000D01*
G01*
X77897000Y-147069000D01*
G75*
G02*
X77847000Y-147119000I-50000J0D01*
G01*
G37*
G36*
G01*
X77047000Y-147119000D02*
X76497000Y-147119000D01*
G75*
G02*
X76447000Y-147069000I0J50000D01*
G01*
X76447000Y-145569000D01*
G75*
G02*
X76497000Y-145519000I50000J0D01*
G01*
X77047000Y-145519000D01*
G75*
G02*
X77097000Y-145569000I0J-50000D01*
G01*
X77097000Y-147069000D01*
G75*
G02*
X77047000Y-147119000I-50000J0D01*
G01*
G37*
G36*
G01*
X75872000Y-147744000D02*
X75872000Y-148294000D01*
G75*
G02*
X75822000Y-148344000I-50000J0D01*
G01*
X74322000Y-148344000D01*
G75*
G02*
X74272000Y-148294000I0J50000D01*
G01*
X74272000Y-147744000D01*
G75*
G02*
X74322000Y-147694000I50000J0D01*
G01*
X75822000Y-147694000D01*
G75*
G02*
X75872000Y-147744000I0J-50000D01*
G01*
G37*
G36*
G01*
X75872000Y-148544000D02*
X75872000Y-149094000D01*
G75*
G02*
X75822000Y-149144000I-50000J0D01*
G01*
X74322000Y-149144000D01*
G75*
G02*
X74272000Y-149094000I0J50000D01*
G01*
X74272000Y-148544000D01*
G75*
G02*
X74322000Y-148494000I50000J0D01*
G01*
X75822000Y-148494000D01*
G75*
G02*
X75872000Y-148544000I0J-50000D01*
G01*
G37*
G36*
G01*
X75872000Y-149344000D02*
X75872000Y-149894000D01*
G75*
G02*
X75822000Y-149944000I-50000J0D01*
G01*
X74322000Y-149944000D01*
G75*
G02*
X74272000Y-149894000I0J50000D01*
G01*
X74272000Y-149344000D01*
G75*
G02*
X74322000Y-149294000I50000J0D01*
G01*
X75822000Y-149294000D01*
G75*
G02*
X75872000Y-149344000I0J-50000D01*
G01*
G37*
G36*
G01*
X75872000Y-150144000D02*
X75872000Y-150694000D01*
G75*
G02*
X75822000Y-150744000I-50000J0D01*
G01*
X74322000Y-150744000D01*
G75*
G02*
X74272000Y-150694000I0J50000D01*
G01*
X74272000Y-150144000D01*
G75*
G02*
X74322000Y-150094000I50000J0D01*
G01*
X75822000Y-150094000D01*
G75*
G02*
X75872000Y-150144000I0J-50000D01*
G01*
G37*
G36*
G01*
X75872000Y-150944000D02*
X75872000Y-151494000D01*
G75*
G02*
X75822000Y-151544000I-50000J0D01*
G01*
X74322000Y-151544000D01*
G75*
G02*
X74272000Y-151494000I0J50000D01*
G01*
X74272000Y-150944000D01*
G75*
G02*
X74322000Y-150894000I50000J0D01*
G01*
X75822000Y-150894000D01*
G75*
G02*
X75872000Y-150944000I0J-50000D01*
G01*
G37*
G36*
G01*
X75872000Y-151744000D02*
X75872000Y-152294000D01*
G75*
G02*
X75822000Y-152344000I-50000J0D01*
G01*
X74322000Y-152344000D01*
G75*
G02*
X74272000Y-152294000I0J50000D01*
G01*
X74272000Y-151744000D01*
G75*
G02*
X74322000Y-151694000I50000J0D01*
G01*
X75822000Y-151694000D01*
G75*
G02*
X75872000Y-151744000I0J-50000D01*
G01*
G37*
G36*
G01*
X75872000Y-152544000D02*
X75872000Y-153094000D01*
G75*
G02*
X75822000Y-153144000I-50000J0D01*
G01*
X74322000Y-153144000D01*
G75*
G02*
X74272000Y-153094000I0J50000D01*
G01*
X74272000Y-152544000D01*
G75*
G02*
X74322000Y-152494000I50000J0D01*
G01*
X75822000Y-152494000D01*
G75*
G02*
X75872000Y-152544000I0J-50000D01*
G01*
G37*
G36*
G01*
X75872000Y-153344000D02*
X75872000Y-153894000D01*
G75*
G02*
X75822000Y-153944000I-50000J0D01*
G01*
X74322000Y-153944000D01*
G75*
G02*
X74272000Y-153894000I0J50000D01*
G01*
X74272000Y-153344000D01*
G75*
G02*
X74322000Y-153294000I50000J0D01*
G01*
X75822000Y-153294000D01*
G75*
G02*
X75872000Y-153344000I0J-50000D01*
G01*
G37*
G36*
G01*
X75872000Y-154144000D02*
X75872000Y-154694000D01*
G75*
G02*
X75822000Y-154744000I-50000J0D01*
G01*
X74322000Y-154744000D01*
G75*
G02*
X74272000Y-154694000I0J50000D01*
G01*
X74272000Y-154144000D01*
G75*
G02*
X74322000Y-154094000I50000J0D01*
G01*
X75822000Y-154094000D01*
G75*
G02*
X75872000Y-154144000I0J-50000D01*
G01*
G37*
G36*
G01*
X75872000Y-154944000D02*
X75872000Y-155494000D01*
G75*
G02*
X75822000Y-155544000I-50000J0D01*
G01*
X74322000Y-155544000D01*
G75*
G02*
X74272000Y-155494000I0J50000D01*
G01*
X74272000Y-154944000D01*
G75*
G02*
X74322000Y-154894000I50000J0D01*
G01*
X75822000Y-154894000D01*
G75*
G02*
X75872000Y-154944000I0J-50000D01*
G01*
G37*
G36*
G01*
X75872000Y-155744000D02*
X75872000Y-156294000D01*
G75*
G02*
X75822000Y-156344000I-50000J0D01*
G01*
X74322000Y-156344000D01*
G75*
G02*
X74272000Y-156294000I0J50000D01*
G01*
X74272000Y-155744000D01*
G75*
G02*
X74322000Y-155694000I50000J0D01*
G01*
X75822000Y-155694000D01*
G75*
G02*
X75872000Y-155744000I0J-50000D01*
G01*
G37*
G36*
G01*
X77047000Y-158519000D02*
X76497000Y-158519000D01*
G75*
G02*
X76447000Y-158469000I0J50000D01*
G01*
X76447000Y-156969000D01*
G75*
G02*
X76497000Y-156919000I50000J0D01*
G01*
X77047000Y-156919000D01*
G75*
G02*
X77097000Y-156969000I0J-50000D01*
G01*
X77097000Y-158469000D01*
G75*
G02*
X77047000Y-158519000I-50000J0D01*
G01*
G37*
G36*
G01*
X77847000Y-158519000D02*
X77297000Y-158519000D01*
G75*
G02*
X77247000Y-158469000I0J50000D01*
G01*
X77247000Y-156969000D01*
G75*
G02*
X77297000Y-156919000I50000J0D01*
G01*
X77847000Y-156919000D01*
G75*
G02*
X77897000Y-156969000I0J-50000D01*
G01*
X77897000Y-158469000D01*
G75*
G02*
X77847000Y-158519000I-50000J0D01*
G01*
G37*
G36*
G01*
X78647000Y-158519000D02*
X78097000Y-158519000D01*
G75*
G02*
X78047000Y-158469000I0J50000D01*
G01*
X78047000Y-156969000D01*
G75*
G02*
X78097000Y-156919000I50000J0D01*
G01*
X78647000Y-156919000D01*
G75*
G02*
X78697000Y-156969000I0J-50000D01*
G01*
X78697000Y-158469000D01*
G75*
G02*
X78647000Y-158519000I-50000J0D01*
G01*
G37*
G36*
G01*
X79447000Y-158519000D02*
X78897000Y-158519000D01*
G75*
G02*
X78847000Y-158469000I0J50000D01*
G01*
X78847000Y-156969000D01*
G75*
G02*
X78897000Y-156919000I50000J0D01*
G01*
X79447000Y-156919000D01*
G75*
G02*
X79497000Y-156969000I0J-50000D01*
G01*
X79497000Y-158469000D01*
G75*
G02*
X79447000Y-158519000I-50000J0D01*
G01*
G37*
G36*
G01*
X80247000Y-158519000D02*
X79697000Y-158519000D01*
G75*
G02*
X79647000Y-158469000I0J50000D01*
G01*
X79647000Y-156969000D01*
G75*
G02*
X79697000Y-156919000I50000J0D01*
G01*
X80247000Y-156919000D01*
G75*
G02*
X80297000Y-156969000I0J-50000D01*
G01*
X80297000Y-158469000D01*
G75*
G02*
X80247000Y-158519000I-50000J0D01*
G01*
G37*
G36*
G01*
X81047000Y-158519000D02*
X80497000Y-158519000D01*
G75*
G02*
X80447000Y-158469000I0J50000D01*
G01*
X80447000Y-156969000D01*
G75*
G02*
X80497000Y-156919000I50000J0D01*
G01*
X81047000Y-156919000D01*
G75*
G02*
X81097000Y-156969000I0J-50000D01*
G01*
X81097000Y-158469000D01*
G75*
G02*
X81047000Y-158519000I-50000J0D01*
G01*
G37*
G36*
G01*
X81847000Y-158519000D02*
X81297000Y-158519000D01*
G75*
G02*
X81247000Y-158469000I0J50000D01*
G01*
X81247000Y-156969000D01*
G75*
G02*
X81297000Y-156919000I50000J0D01*
G01*
X81847000Y-156919000D01*
G75*
G02*
X81897000Y-156969000I0J-50000D01*
G01*
X81897000Y-158469000D01*
G75*
G02*
X81847000Y-158519000I-50000J0D01*
G01*
G37*
G36*
G01*
X82647000Y-158519000D02*
X82097000Y-158519000D01*
G75*
G02*
X82047000Y-158469000I0J50000D01*
G01*
X82047000Y-156969000D01*
G75*
G02*
X82097000Y-156919000I50000J0D01*
G01*
X82647000Y-156919000D01*
G75*
G02*
X82697000Y-156969000I0J-50000D01*
G01*
X82697000Y-158469000D01*
G75*
G02*
X82647000Y-158519000I-50000J0D01*
G01*
G37*
G36*
G01*
X83447000Y-158519000D02*
X82897000Y-158519000D01*
G75*
G02*
X82847000Y-158469000I0J50000D01*
G01*
X82847000Y-156969000D01*
G75*
G02*
X82897000Y-156919000I50000J0D01*
G01*
X83447000Y-156919000D01*
G75*
G02*
X83497000Y-156969000I0J-50000D01*
G01*
X83497000Y-158469000D01*
G75*
G02*
X83447000Y-158519000I-50000J0D01*
G01*
G37*
G36*
G01*
X84247000Y-158519000D02*
X83697000Y-158519000D01*
G75*
G02*
X83647000Y-158469000I0J50000D01*
G01*
X83647000Y-156969000D01*
G75*
G02*
X83697000Y-156919000I50000J0D01*
G01*
X84247000Y-156919000D01*
G75*
G02*
X84297000Y-156969000I0J-50000D01*
G01*
X84297000Y-158469000D01*
G75*
G02*
X84247000Y-158519000I-50000J0D01*
G01*
G37*
G36*
G01*
X85047000Y-158519000D02*
X84497000Y-158519000D01*
G75*
G02*
X84447000Y-158469000I0J50000D01*
G01*
X84447000Y-156969000D01*
G75*
G02*
X84497000Y-156919000I50000J0D01*
G01*
X85047000Y-156919000D01*
G75*
G02*
X85097000Y-156969000I0J-50000D01*
G01*
X85097000Y-158469000D01*
G75*
G02*
X85047000Y-158519000I-50000J0D01*
G01*
G37*
G36*
G01*
X87272000Y-155744000D02*
X87272000Y-156294000D01*
G75*
G02*
X87222000Y-156344000I-50000J0D01*
G01*
X85722000Y-156344000D01*
G75*
G02*
X85672000Y-156294000I0J50000D01*
G01*
X85672000Y-155744000D01*
G75*
G02*
X85722000Y-155694000I50000J0D01*
G01*
X87222000Y-155694000D01*
G75*
G02*
X87272000Y-155744000I0J-50000D01*
G01*
G37*
G36*
G01*
X87272000Y-154944000D02*
X87272000Y-155494000D01*
G75*
G02*
X87222000Y-155544000I-50000J0D01*
G01*
X85722000Y-155544000D01*
G75*
G02*
X85672000Y-155494000I0J50000D01*
G01*
X85672000Y-154944000D01*
G75*
G02*
X85722000Y-154894000I50000J0D01*
G01*
X87222000Y-154894000D01*
G75*
G02*
X87272000Y-154944000I0J-50000D01*
G01*
G37*
G36*
G01*
X87272000Y-154144000D02*
X87272000Y-154694000D01*
G75*
G02*
X87222000Y-154744000I-50000J0D01*
G01*
X85722000Y-154744000D01*
G75*
G02*
X85672000Y-154694000I0J50000D01*
G01*
X85672000Y-154144000D01*
G75*
G02*
X85722000Y-154094000I50000J0D01*
G01*
X87222000Y-154094000D01*
G75*
G02*
X87272000Y-154144000I0J-50000D01*
G01*
G37*
G36*
G01*
X87272000Y-153344000D02*
X87272000Y-153894000D01*
G75*
G02*
X87222000Y-153944000I-50000J0D01*
G01*
X85722000Y-153944000D01*
G75*
G02*
X85672000Y-153894000I0J50000D01*
G01*
X85672000Y-153344000D01*
G75*
G02*
X85722000Y-153294000I50000J0D01*
G01*
X87222000Y-153294000D01*
G75*
G02*
X87272000Y-153344000I0J-50000D01*
G01*
G37*
G36*
G01*
X87272000Y-152544000D02*
X87272000Y-153094000D01*
G75*
G02*
X87222000Y-153144000I-50000J0D01*
G01*
X85722000Y-153144000D01*
G75*
G02*
X85672000Y-153094000I0J50000D01*
G01*
X85672000Y-152544000D01*
G75*
G02*
X85722000Y-152494000I50000J0D01*
G01*
X87222000Y-152494000D01*
G75*
G02*
X87272000Y-152544000I0J-50000D01*
G01*
G37*
G36*
G01*
X87272000Y-151744000D02*
X87272000Y-152294000D01*
G75*
G02*
X87222000Y-152344000I-50000J0D01*
G01*
X85722000Y-152344000D01*
G75*
G02*
X85672000Y-152294000I0J50000D01*
G01*
X85672000Y-151744000D01*
G75*
G02*
X85722000Y-151694000I50000J0D01*
G01*
X87222000Y-151694000D01*
G75*
G02*
X87272000Y-151744000I0J-50000D01*
G01*
G37*
G36*
G01*
X87272000Y-150944000D02*
X87272000Y-151494000D01*
G75*
G02*
X87222000Y-151544000I-50000J0D01*
G01*
X85722000Y-151544000D01*
G75*
G02*
X85672000Y-151494000I0J50000D01*
G01*
X85672000Y-150944000D01*
G75*
G02*
X85722000Y-150894000I50000J0D01*
G01*
X87222000Y-150894000D01*
G75*
G02*
X87272000Y-150944000I0J-50000D01*
G01*
G37*
G36*
G01*
X87272000Y-150144000D02*
X87272000Y-150694000D01*
G75*
G02*
X87222000Y-150744000I-50000J0D01*
G01*
X85722000Y-150744000D01*
G75*
G02*
X85672000Y-150694000I0J50000D01*
G01*
X85672000Y-150144000D01*
G75*
G02*
X85722000Y-150094000I50000J0D01*
G01*
X87222000Y-150094000D01*
G75*
G02*
X87272000Y-150144000I0J-50000D01*
G01*
G37*
G36*
G01*
X87272000Y-149344000D02*
X87272000Y-149894000D01*
G75*
G02*
X87222000Y-149944000I-50000J0D01*
G01*
X85722000Y-149944000D01*
G75*
G02*
X85672000Y-149894000I0J50000D01*
G01*
X85672000Y-149344000D01*
G75*
G02*
X85722000Y-149294000I50000J0D01*
G01*
X87222000Y-149294000D01*
G75*
G02*
X87272000Y-149344000I0J-50000D01*
G01*
G37*
G36*
G01*
X87272000Y-148544000D02*
X87272000Y-149094000D01*
G75*
G02*
X87222000Y-149144000I-50000J0D01*
G01*
X85722000Y-149144000D01*
G75*
G02*
X85672000Y-149094000I0J50000D01*
G01*
X85672000Y-148544000D01*
G75*
G02*
X85722000Y-148494000I50000J0D01*
G01*
X87222000Y-148494000D01*
G75*
G02*
X87272000Y-148544000I0J-50000D01*
G01*
G37*
G36*
G01*
X87272000Y-147744000D02*
X87272000Y-148294000D01*
G75*
G02*
X87222000Y-148344000I-50000J0D01*
G01*
X85722000Y-148344000D01*
G75*
G02*
X85672000Y-148294000I0J50000D01*
G01*
X85672000Y-147744000D01*
G75*
G02*
X85722000Y-147694000I50000J0D01*
G01*
X87222000Y-147694000D01*
G75*
G02*
X87272000Y-147744000I0J-50000D01*
G01*
G37*
G04 #@! TD*
G04 #@! TO.C,SW1*
G36*
G01*
X102602000Y-173893000D02*
X102602000Y-174993000D01*
G75*
G02*
X102552000Y-175043000I-50000J0D01*
G01*
X100752000Y-175043000D01*
G75*
G02*
X100702000Y-174993000I0J50000D01*
G01*
X100702000Y-173893000D01*
G75*
G02*
X100752000Y-173843000I50000J0D01*
G01*
X102552000Y-173843000D01*
G75*
G02*
X102602000Y-173893000I0J-50000D01*
G01*
G37*
G36*
G01*
X96402000Y-170193000D02*
X96402000Y-171293000D01*
G75*
G02*
X96352000Y-171343000I-50000J0D01*
G01*
X94552000Y-171343000D01*
G75*
G02*
X94502000Y-171293000I0J50000D01*
G01*
X94502000Y-170193000D01*
G75*
G02*
X94552000Y-170143000I50000J0D01*
G01*
X96352000Y-170143000D01*
G75*
G02*
X96402000Y-170193000I0J-50000D01*
G01*
G37*
G36*
G01*
X102602000Y-170193000D02*
X102602000Y-171293000D01*
G75*
G02*
X102552000Y-171343000I-50000J0D01*
G01*
X100752000Y-171343000D01*
G75*
G02*
X100702000Y-171293000I0J50000D01*
G01*
X100702000Y-170193000D01*
G75*
G02*
X100752000Y-170143000I50000J0D01*
G01*
X102552000Y-170143000D01*
G75*
G02*
X102602000Y-170193000I0J-50000D01*
G01*
G37*
G36*
G01*
X96402000Y-173893000D02*
X96402000Y-174993000D01*
G75*
G02*
X96352000Y-175043000I-50000J0D01*
G01*
X94552000Y-175043000D01*
G75*
G02*
X94502000Y-174993000I0J50000D01*
G01*
X94502000Y-173893000D01*
G75*
G02*
X94552000Y-173843000I50000J0D01*
G01*
X96352000Y-173843000D01*
G75*
G02*
X96402000Y-173893000I0J-50000D01*
G01*
G37*
G04 #@! TD*
G04 #@! TO.C,R4*
G36*
G01*
X70077250Y-146539000D02*
X69114750Y-146539000D01*
G75*
G02*
X68846000Y-146270250I0J268750D01*
G01*
X68846000Y-145732750D01*
G75*
G02*
X69114750Y-145464000I268750J0D01*
G01*
X70077250Y-145464000D01*
G75*
G02*
X70346000Y-145732750I0J-268750D01*
G01*
X70346000Y-146270250D01*
G75*
G02*
X70077250Y-146539000I-268750J0D01*
G01*
G37*
G36*
G01*
X70077250Y-148414000D02*
X69114750Y-148414000D01*
G75*
G02*
X68846000Y-148145250I0J268750D01*
G01*
X68846000Y-147607750D01*
G75*
G02*
X69114750Y-147339000I268750J0D01*
G01*
X70077250Y-147339000D01*
G75*
G02*
X70346000Y-147607750I0J-268750D01*
G01*
X70346000Y-148145250D01*
G75*
G02*
X70077250Y-148414000I-268750J0D01*
G01*
G37*
G04 #@! TD*
G04 #@! TO.C,R3*
G36*
G01*
X92937250Y-161017000D02*
X91974750Y-161017000D01*
G75*
G02*
X91706000Y-160748250I0J268750D01*
G01*
X91706000Y-160210750D01*
G75*
G02*
X91974750Y-159942000I268750J0D01*
G01*
X92937250Y-159942000D01*
G75*
G02*
X93206000Y-160210750I0J-268750D01*
G01*
X93206000Y-160748250D01*
G75*
G02*
X92937250Y-161017000I-268750J0D01*
G01*
G37*
G36*
G01*
X92937250Y-162892000D02*
X91974750Y-162892000D01*
G75*
G02*
X91706000Y-162623250I0J268750D01*
G01*
X91706000Y-162085750D01*
G75*
G02*
X91974750Y-161817000I268750J0D01*
G01*
X92937250Y-161817000D01*
G75*
G02*
X93206000Y-162085750I0J-268750D01*
G01*
X93206000Y-162623250D01*
G75*
G02*
X92937250Y-162892000I-268750J0D01*
G01*
G37*
G04 #@! TD*
G04 #@! TO.C,R2*
G36*
G01*
X100341250Y-147898000D02*
X99378750Y-147898000D01*
G75*
G02*
X99110000Y-147629250I0J268750D01*
G01*
X99110000Y-147091750D01*
G75*
G02*
X99378750Y-146823000I268750J0D01*
G01*
X100341250Y-146823000D01*
G75*
G02*
X100610000Y-147091750I0J-268750D01*
G01*
X100610000Y-147629250D01*
G75*
G02*
X100341250Y-147898000I-268750J0D01*
G01*
G37*
G36*
G01*
X100341250Y-149773000D02*
X99378750Y-149773000D01*
G75*
G02*
X99110000Y-149504250I0J268750D01*
G01*
X99110000Y-148966750D01*
G75*
G02*
X99378750Y-148698000I268750J0D01*
G01*
X100341250Y-148698000D01*
G75*
G02*
X100610000Y-148966750I0J-268750D01*
G01*
X100610000Y-149504250D01*
G75*
G02*
X100341250Y-149773000I-268750J0D01*
G01*
G37*
G04 #@! TD*
G04 #@! TO.C,R1*
G36*
G01*
X96330750Y-148698000D02*
X97293250Y-148698000D01*
G75*
G02*
X97562000Y-148966750I0J-268750D01*
G01*
X97562000Y-149504250D01*
G75*
G02*
X97293250Y-149773000I-268750J0D01*
G01*
X96330750Y-149773000D01*
G75*
G02*
X96062000Y-149504250I0J268750D01*
G01*
X96062000Y-148966750D01*
G75*
G02*
X96330750Y-148698000I268750J0D01*
G01*
G37*
G36*
G01*
X96330750Y-146823000D02*
X97293250Y-146823000D01*
G75*
G02*
X97562000Y-147091750I0J-268750D01*
G01*
X97562000Y-147629250D01*
G75*
G02*
X97293250Y-147898000I-268750J0D01*
G01*
X96330750Y-147898000D01*
G75*
G02*
X96062000Y-147629250I0J268750D01*
G01*
X96062000Y-147091750D01*
G75*
G02*
X96330750Y-146823000I268750J0D01*
G01*
G37*
G04 #@! TD*
D13*
G04 #@! TO.C,MX4*
X137922000Y-165989000D03*
X127762000Y-165989000D03*
D14*
X130342000Y-161989000D03*
D15*
X132842000Y-165989000D03*
G36*
G01*
X128247291Y-164323560D02*
X128247291Y-164323561D01*
G75*
G02*
X128157439Y-162664291I784709J874561D01*
G01*
X129467441Y-161204291D01*
G75*
G02*
X131126711Y-161114439I874561J-784709D01*
G01*
X131126711Y-161114439D01*
G75*
G02*
X131216563Y-162773709I-784709J-874561D01*
G01*
X129906561Y-164233709D01*
G75*
G02*
X128247291Y-164323561I-874561J784709D01*
G01*
G37*
D14*
X135382000Y-160909000D03*
G36*
G01*
X135261157Y-162661216D02*
X135261157Y-162661216D01*
G75*
G02*
X134169784Y-161408157I80843J1172216D01*
G01*
X134209784Y-160828157D01*
G75*
G02*
X135462843Y-159736784I1172216J-80843D01*
G01*
X135462843Y-159736784D01*
G75*
G02*
X136554216Y-160989843I-80843J-1172216D01*
G01*
X136514216Y-161569843D01*
G75*
G02*
X135261157Y-162661216I-1172216J80843D01*
G01*
G37*
G04 #@! TD*
D13*
G04 #@! TO.C,MX3*
X137922000Y-146939000D03*
X127762000Y-146939000D03*
D14*
X130342000Y-142939000D03*
D15*
X132842000Y-146939000D03*
G36*
G01*
X128247291Y-145273560D02*
X128247291Y-145273561D01*
G75*
G02*
X128157439Y-143614291I784709J874561D01*
G01*
X129467441Y-142154291D01*
G75*
G02*
X131126711Y-142064439I874561J-784709D01*
G01*
X131126711Y-142064439D01*
G75*
G02*
X131216563Y-143723709I-784709J-874561D01*
G01*
X129906561Y-145183709D01*
G75*
G02*
X128247291Y-145273561I-874561J784709D01*
G01*
G37*
D14*
X135382000Y-141859000D03*
G36*
G01*
X135261157Y-143611216D02*
X135261157Y-143611216D01*
G75*
G02*
X134169784Y-142358157I80843J1172216D01*
G01*
X134209784Y-141778157D01*
G75*
G02*
X135462843Y-140686784I1172216J-80843D01*
G01*
X135462843Y-140686784D01*
G75*
G02*
X136554216Y-141939843I-80843J-1172216D01*
G01*
X136514216Y-142519843D01*
G75*
G02*
X135261157Y-143611216I-1172216J80843D01*
G01*
G37*
G04 #@! TD*
D13*
G04 #@! TO.C,MX2*
X118872000Y-165989000D03*
X108712000Y-165989000D03*
D14*
X111292000Y-161989000D03*
D15*
X113792000Y-165989000D03*
G36*
G01*
X109197291Y-164323560D02*
X109197291Y-164323561D01*
G75*
G02*
X109107439Y-162664291I784709J874561D01*
G01*
X110417441Y-161204291D01*
G75*
G02*
X112076711Y-161114439I874561J-784709D01*
G01*
X112076711Y-161114439D01*
G75*
G02*
X112166563Y-162773709I-784709J-874561D01*
G01*
X110856561Y-164233709D01*
G75*
G02*
X109197291Y-164323561I-874561J784709D01*
G01*
G37*
D14*
X116332000Y-160909000D03*
G36*
G01*
X116211157Y-162661216D02*
X116211157Y-162661216D01*
G75*
G02*
X115119784Y-161408157I80843J1172216D01*
G01*
X115159784Y-160828157D01*
G75*
G02*
X116412843Y-159736784I1172216J-80843D01*
G01*
X116412843Y-159736784D01*
G75*
G02*
X117504216Y-160989843I-80843J-1172216D01*
G01*
X117464216Y-161569843D01*
G75*
G02*
X116211157Y-162661216I-1172216J80843D01*
G01*
G37*
G04 #@! TD*
D13*
G04 #@! TO.C,MX1*
X118872000Y-146939000D03*
X108712000Y-146939000D03*
D14*
X111292000Y-142939000D03*
D15*
X113792000Y-146939000D03*
G36*
G01*
X109197291Y-145273560D02*
X109197291Y-145273561D01*
G75*
G02*
X109107439Y-143614291I784709J874561D01*
G01*
X110417441Y-142154291D01*
G75*
G02*
X112076711Y-142064439I874561J-784709D01*
G01*
X112076711Y-142064439D01*
G75*
G02*
X112166563Y-143723709I-784709J-874561D01*
G01*
X110856561Y-145183709D01*
G75*
G02*
X109197291Y-145273561I-874561J784709D01*
G01*
G37*
D14*
X116332000Y-141859000D03*
G36*
G01*
X116211157Y-143611216D02*
X116211157Y-143611216D01*
G75*
G02*
X115119784Y-142358157I80843J1172216D01*
G01*
X115159784Y-141778157D01*
G75*
G02*
X116412843Y-140686784I1172216J-80843D01*
G01*
X116412843Y-140686784D01*
G75*
G02*
X117504216Y-141939843I-80843J-1172216D01*
G01*
X117464216Y-142519843D01*
G75*
G02*
X116211157Y-143611216I-1172216J80843D01*
G01*
G37*
G04 #@! TD*
G04 #@! TO.C,F1*
G36*
G01*
X90698000Y-141388000D02*
X89388000Y-141388000D01*
G75*
G02*
X89118000Y-141118000I0J270000D01*
G01*
X89118000Y-140308000D01*
G75*
G02*
X89388000Y-140038000I270000J0D01*
G01*
X90698000Y-140038000D01*
G75*
G02*
X90968000Y-140308000I0J-270000D01*
G01*
X90968000Y-141118000D01*
G75*
G02*
X90698000Y-141388000I-270000J0D01*
G01*
G37*
G36*
G01*
X90698000Y-144188000D02*
X89388000Y-144188000D01*
G75*
G02*
X89118000Y-143918000I0J270000D01*
G01*
X89118000Y-143108000D01*
G75*
G02*
X89388000Y-142838000I270000J0D01*
G01*
X90698000Y-142838000D01*
G75*
G02*
X90968000Y-143108000I0J-270000D01*
G01*
X90968000Y-143918000D01*
G75*
G02*
X90698000Y-144188000I-270000J0D01*
G01*
G37*
G04 #@! TD*
G04 #@! TO.C,D4*
G36*
G01*
X138804000Y-173771000D02*
X138804000Y-174971000D01*
G75*
G02*
X138754000Y-175021000I-50000J0D01*
G01*
X137854000Y-175021000D01*
G75*
G02*
X137804000Y-174971000I0J50000D01*
G01*
X137804000Y-173771000D01*
G75*
G02*
X137854000Y-173721000I50000J0D01*
G01*
X138754000Y-173721000D01*
G75*
G02*
X138804000Y-173771000I0J-50000D01*
G01*
G37*
G36*
G01*
X142104000Y-173771000D02*
X142104000Y-174971000D01*
G75*
G02*
X142054000Y-175021000I-50000J0D01*
G01*
X141154000Y-175021000D01*
G75*
G02*
X141104000Y-174971000I0J50000D01*
G01*
X141104000Y-173771000D01*
G75*
G02*
X141154000Y-173721000I50000J0D01*
G01*
X142054000Y-173721000D01*
G75*
G02*
X142104000Y-173771000I0J-50000D01*
G01*
G37*
G04 #@! TD*
G04 #@! TO.C,D3*
G36*
G01*
X138804000Y-154721000D02*
X138804000Y-155921000D01*
G75*
G02*
X138754000Y-155971000I-50000J0D01*
G01*
X137854000Y-155971000D01*
G75*
G02*
X137804000Y-155921000I0J50000D01*
G01*
X137804000Y-154721000D01*
G75*
G02*
X137854000Y-154671000I50000J0D01*
G01*
X138754000Y-154671000D01*
G75*
G02*
X138804000Y-154721000I0J-50000D01*
G01*
G37*
G36*
G01*
X142104000Y-154721000D02*
X142104000Y-155921000D01*
G75*
G02*
X142054000Y-155971000I-50000J0D01*
G01*
X141154000Y-155971000D01*
G75*
G02*
X141104000Y-155921000I0J50000D01*
G01*
X141104000Y-154721000D01*
G75*
G02*
X141154000Y-154671000I50000J0D01*
G01*
X142054000Y-154671000D01*
G75*
G02*
X142104000Y-154721000I0J-50000D01*
G01*
G37*
G04 #@! TD*
G04 #@! TO.C,D2*
G36*
G01*
X119754000Y-173771000D02*
X119754000Y-174971000D01*
G75*
G02*
X119704000Y-175021000I-50000J0D01*
G01*
X118804000Y-175021000D01*
G75*
G02*
X118754000Y-174971000I0J50000D01*
G01*
X118754000Y-173771000D01*
G75*
G02*
X118804000Y-173721000I50000J0D01*
G01*
X119704000Y-173721000D01*
G75*
G02*
X119754000Y-173771000I0J-50000D01*
G01*
G37*
G36*
G01*
X123054000Y-173771000D02*
X123054000Y-174971000D01*
G75*
G02*
X123004000Y-175021000I-50000J0D01*
G01*
X122104000Y-175021000D01*
G75*
G02*
X122054000Y-174971000I0J50000D01*
G01*
X122054000Y-173771000D01*
G75*
G02*
X122104000Y-173721000I50000J0D01*
G01*
X123004000Y-173721000D01*
G75*
G02*
X123054000Y-173771000I0J-50000D01*
G01*
G37*
G04 #@! TD*
G04 #@! TO.C,D1*
G36*
G01*
X119754000Y-154721000D02*
X119754000Y-155921000D01*
G75*
G02*
X119704000Y-155971000I-50000J0D01*
G01*
X118804000Y-155971000D01*
G75*
G02*
X118754000Y-155921000I0J50000D01*
G01*
X118754000Y-154721000D01*
G75*
G02*
X118804000Y-154671000I50000J0D01*
G01*
X119704000Y-154671000D01*
G75*
G02*
X119754000Y-154721000I0J-50000D01*
G01*
G37*
G36*
G01*
X123054000Y-154721000D02*
X123054000Y-155921000D01*
G75*
G02*
X123004000Y-155971000I-50000J0D01*
G01*
X122104000Y-155971000D01*
G75*
G02*
X122054000Y-155921000I0J50000D01*
G01*
X122054000Y-154721000D01*
G75*
G02*
X122104000Y-154671000I50000J0D01*
G01*
X123004000Y-154671000D01*
G75*
G02*
X123054000Y-154721000I0J-50000D01*
G01*
G37*
G04 #@! TD*
G04 #@! TO.C,C7*
G36*
G01*
X83674000Y-140361750D02*
X83674000Y-141324250D01*
G75*
G02*
X83405250Y-141593000I-268750J0D01*
G01*
X82867750Y-141593000D01*
G75*
G02*
X82599000Y-141324250I0J268750D01*
G01*
X82599000Y-140361750D01*
G75*
G02*
X82867750Y-140093000I268750J0D01*
G01*
X83405250Y-140093000D01*
G75*
G02*
X83674000Y-140361750I0J-268750D01*
G01*
G37*
G36*
G01*
X85549000Y-140361750D02*
X85549000Y-141324250D01*
G75*
G02*
X85280250Y-141593000I-268750J0D01*
G01*
X84742750Y-141593000D01*
G75*
G02*
X84474000Y-141324250I0J268750D01*
G01*
X84474000Y-140361750D01*
G75*
G02*
X84742750Y-140093000I268750J0D01*
G01*
X85280250Y-140093000D01*
G75*
G02*
X85549000Y-140361750I0J-268750D01*
G01*
G37*
G04 #@! TD*
G04 #@! TO.C,C6*
G36*
G01*
X76092000Y-141324250D02*
X76092000Y-140361750D01*
G75*
G02*
X76360750Y-140093000I268750J0D01*
G01*
X76898250Y-140093000D01*
G75*
G02*
X77167000Y-140361750I0J-268750D01*
G01*
X77167000Y-141324250D01*
G75*
G02*
X76898250Y-141593000I-268750J0D01*
G01*
X76360750Y-141593000D01*
G75*
G02*
X76092000Y-141324250I0J268750D01*
G01*
G37*
G36*
G01*
X74217000Y-141324250D02*
X74217000Y-140361750D01*
G75*
G02*
X74485750Y-140093000I268750J0D01*
G01*
X75023250Y-140093000D01*
G75*
G02*
X75292000Y-140361750I0J-268750D01*
G01*
X75292000Y-141324250D01*
G75*
G02*
X75023250Y-141593000I-268750J0D01*
G01*
X74485750Y-141593000D01*
G75*
G02*
X74217000Y-141324250I0J268750D01*
G01*
G37*
G04 #@! TD*
G04 #@! TO.C,C5*
G36*
G01*
X69114750Y-156737000D02*
X70077250Y-156737000D01*
G75*
G02*
X70346000Y-157005750I0J-268750D01*
G01*
X70346000Y-157543250D01*
G75*
G02*
X70077250Y-157812000I-268750J0D01*
G01*
X69114750Y-157812000D01*
G75*
G02*
X68846000Y-157543250I0J268750D01*
G01*
X68846000Y-157005750D01*
G75*
G02*
X69114750Y-156737000I268750J0D01*
G01*
G37*
G36*
G01*
X69114750Y-154862000D02*
X70077250Y-154862000D01*
G75*
G02*
X70346000Y-155130750I0J-268750D01*
G01*
X70346000Y-155668250D01*
G75*
G02*
X70077250Y-155937000I-268750J0D01*
G01*
X69114750Y-155937000D01*
G75*
G02*
X68846000Y-155668250I0J268750D01*
G01*
X68846000Y-155130750D01*
G75*
G02*
X69114750Y-154862000I268750J0D01*
G01*
G37*
G04 #@! TD*
G04 #@! TO.C,C4*
G36*
G01*
X86386750Y-161817000D02*
X87349250Y-161817000D01*
G75*
G02*
X87618000Y-162085750I0J-268750D01*
G01*
X87618000Y-162623250D01*
G75*
G02*
X87349250Y-162892000I-268750J0D01*
G01*
X86386750Y-162892000D01*
G75*
G02*
X86118000Y-162623250I0J268750D01*
G01*
X86118000Y-162085750D01*
G75*
G02*
X86386750Y-161817000I268750J0D01*
G01*
G37*
G36*
G01*
X86386750Y-159942000D02*
X87349250Y-159942000D01*
G75*
G02*
X87618000Y-160210750I0J-268750D01*
G01*
X87618000Y-160748250D01*
G75*
G02*
X87349250Y-161017000I-268750J0D01*
G01*
X86386750Y-161017000D01*
G75*
G02*
X86118000Y-160748250I0J268750D01*
G01*
X86118000Y-160210750D01*
G75*
G02*
X86386750Y-159942000I268750J0D01*
G01*
G37*
G04 #@! TD*
G04 #@! TO.C,C3*
G36*
G01*
X91840000Y-151738250D02*
X91840000Y-150775750D01*
G75*
G02*
X92108750Y-150507000I268750J0D01*
G01*
X92646250Y-150507000D01*
G75*
G02*
X92915000Y-150775750I0J-268750D01*
G01*
X92915000Y-151738250D01*
G75*
G02*
X92646250Y-152007000I-268750J0D01*
G01*
X92108750Y-152007000D01*
G75*
G02*
X91840000Y-151738250I0J268750D01*
G01*
G37*
G36*
G01*
X89965000Y-151738250D02*
X89965000Y-150775750D01*
G75*
G02*
X90233750Y-150507000I268750J0D01*
G01*
X90771250Y-150507000D01*
G75*
G02*
X91040000Y-150775750I0J-268750D01*
G01*
X91040000Y-151738250D01*
G75*
G02*
X90771250Y-152007000I-268750J0D01*
G01*
X90233750Y-152007000D01*
G75*
G02*
X89965000Y-151738250I0J268750D01*
G01*
G37*
G04 #@! TD*
G04 #@! TO.C,C2*
G36*
G01*
X77443250Y-171431000D02*
X76480750Y-171431000D01*
G75*
G02*
X76212000Y-171162250I0J268750D01*
G01*
X76212000Y-170624750D01*
G75*
G02*
X76480750Y-170356000I268750J0D01*
G01*
X77443250Y-170356000D01*
G75*
G02*
X77712000Y-170624750I0J-268750D01*
G01*
X77712000Y-171162250D01*
G75*
G02*
X77443250Y-171431000I-268750J0D01*
G01*
G37*
G36*
G01*
X77443250Y-173306000D02*
X76480750Y-173306000D01*
G75*
G02*
X76212000Y-173037250I0J268750D01*
G01*
X76212000Y-172499750D01*
G75*
G02*
X76480750Y-172231000I268750J0D01*
G01*
X77443250Y-172231000D01*
G75*
G02*
X77712000Y-172499750I0J-268750D01*
G01*
X77712000Y-173037250D01*
G75*
G02*
X77443250Y-173306000I-268750J0D01*
G01*
G37*
G04 #@! TD*
G04 #@! TO.C,C1*
G36*
G01*
X69114750Y-172231000D02*
X70077250Y-172231000D01*
G75*
G02*
X70346000Y-172499750I0J-268750D01*
G01*
X70346000Y-173037250D01*
G75*
G02*
X70077250Y-173306000I-268750J0D01*
G01*
X69114750Y-173306000D01*
G75*
G02*
X68846000Y-173037250I0J268750D01*
G01*
X68846000Y-172499750D01*
G75*
G02*
X69114750Y-172231000I268750J0D01*
G01*
G37*
G36*
G01*
X69114750Y-170356000D02*
X70077250Y-170356000D01*
G75*
G02*
X70346000Y-170624750I0J-268750D01*
G01*
X70346000Y-171162250D01*
G75*
G02*
X70077250Y-171431000I-268750J0D01*
G01*
X69114750Y-171431000D01*
G75*
G02*
X68846000Y-171162250I0J268750D01*
G01*
X68846000Y-170624750D01*
G75*
G02*
X69114750Y-170356000I268750J0D01*
G01*
G37*
G04 #@! TD*
M02*
