G04 #@! TF.GenerationSoftware,KiCad,Pcbnew,(5.99.0-1822-g1792479ca)*
G04 #@! TF.CreationDate,2020-06-16T18:07:24+08:00*
G04 #@! TF.ProjectId,ai03-pad-duplicate,61693033-2d70-4616-942d-6475706c6963,v01*
G04 #@! TF.SameCoordinates,Original*
G04 #@! TF.FileFunction,Copper,L1,Top*
G04 #@! TF.FilePolarity,Positive*
%FSLAX46Y46*%
G04 Gerber Fmt 4.6, Leading zero omitted, Abs format (unit mm)*
G04 Created by KiCad (PCBNEW (5.99.0-1822-g1792479ca)) date 2020-06-16 18:07:24*
%MOMM*%
%LPD*%
G01*
G04 APERTURE LIST*
G04 #@! TA.AperFunction,ComponentPad*
%ADD10O,1.700000X2.700000*%
G04 #@! TD*
G04 #@! TA.AperFunction,ComponentPad*
%ADD11C,2.250000*%
G04 #@! TD*
G04 #@! TA.AperFunction,ViaPad*
%ADD12C,0.800000*%
G04 #@! TD*
G04 #@! TA.AperFunction,Conductor*
%ADD13C,0.381000*%
G04 #@! TD*
G04 #@! TA.AperFunction,Conductor*
%ADD14C,0.254000*%
G04 #@! TD*
G04 APERTURE END LIST*
D10*
G04 #@! TO.P,USB1,6,SHIELD*
G04 #@! TO.N,GND*
X94432000Y-136614000D03*
X101732000Y-136614000D03*
X101732000Y-141114000D03*
X94432000Y-141114000D03*
G04 #@! TD*
D11*
G04 #@! TO.P,MX4,1,COL*
G04 #@! TO.N,COL1*
X130342000Y-161989000D03*
G04 #@! TA.AperFunction,ComponentPad*
G36*
G01*
X128280683Y-164286345D02*
X128280683Y-164286345D01*
G75*
G02*
X128194655Y-162697683I751317J837345D01*
G01*
X129504657Y-161237683D01*
G75*
G02*
X131093319Y-161151655I837345J-751317D01*
G01*
X131093319Y-161151655D01*
G75*
G02*
X131179347Y-162740317I-751317J-837345D01*
G01*
X129869345Y-164200317D01*
G75*
G02*
X128280683Y-164286345I-837345J751317D01*
G01*
G37*
G04 #@! TD.AperFunction*
G04 #@! TO.P,MX4,2,ROW*
G04 #@! TO.N,Net-(D4-Pad2)*
X135382000Y-160909000D03*
G04 #@! TA.AperFunction,ComponentPad*
G36*
G01*
X135264597Y-162611334D02*
X135264597Y-162611334D01*
G75*
G02*
X134219666Y-161411597I77403J1122334D01*
G01*
X134259666Y-160831597D01*
G75*
G02*
X135459403Y-159786666I1122334J-77403D01*
G01*
X135459403Y-159786666D01*
G75*
G02*
X136504334Y-160986403I-77403J-1122334D01*
G01*
X136464334Y-161566403D01*
G75*
G02*
X135264597Y-162611334I-1122334J77403D01*
G01*
G37*
G04 #@! TD.AperFunction*
G04 #@! TD*
G04 #@! TO.P,MX3,1,COL*
G04 #@! TO.N,COL1*
X130342000Y-142939000D03*
G04 #@! TA.AperFunction,ComponentPad*
G36*
G01*
X128280683Y-145236345D02*
X128280683Y-145236345D01*
G75*
G02*
X128194655Y-143647683I751317J837345D01*
G01*
X129504657Y-142187683D01*
G75*
G02*
X131093319Y-142101655I837345J-751317D01*
G01*
X131093319Y-142101655D01*
G75*
G02*
X131179347Y-143690317I-751317J-837345D01*
G01*
X129869345Y-145150317D01*
G75*
G02*
X128280683Y-145236345I-837345J751317D01*
G01*
G37*
G04 #@! TD.AperFunction*
G04 #@! TO.P,MX3,2,ROW*
G04 #@! TO.N,Net-(D3-Pad2)*
X135382000Y-141859000D03*
G04 #@! TA.AperFunction,ComponentPad*
G36*
G01*
X135264597Y-143561334D02*
X135264597Y-143561334D01*
G75*
G02*
X134219666Y-142361597I77403J1122334D01*
G01*
X134259666Y-141781597D01*
G75*
G02*
X135459403Y-140736666I1122334J-77403D01*
G01*
X135459403Y-140736666D01*
G75*
G02*
X136504334Y-141936403I-77403J-1122334D01*
G01*
X136464334Y-142516403D01*
G75*
G02*
X135264597Y-143561334I-1122334J77403D01*
G01*
G37*
G04 #@! TD.AperFunction*
G04 #@! TD*
G04 #@! TO.P,MX2,1,COL*
G04 #@! TO.N,COL0*
X111292000Y-161989000D03*
G04 #@! TA.AperFunction,ComponentPad*
G36*
G01*
X109230683Y-164286345D02*
X109230683Y-164286345D01*
G75*
G02*
X109144655Y-162697683I751317J837345D01*
G01*
X110454657Y-161237683D01*
G75*
G02*
X112043319Y-161151655I837345J-751317D01*
G01*
X112043319Y-161151655D01*
G75*
G02*
X112129347Y-162740317I-751317J-837345D01*
G01*
X110819345Y-164200317D01*
G75*
G02*
X109230683Y-164286345I-837345J751317D01*
G01*
G37*
G04 #@! TD.AperFunction*
G04 #@! TO.P,MX2,2,ROW*
G04 #@! TO.N,Net-(D2-Pad2)*
X116332000Y-160909000D03*
G04 #@! TA.AperFunction,ComponentPad*
G36*
G01*
X116214597Y-162611334D02*
X116214597Y-162611334D01*
G75*
G02*
X115169666Y-161411597I77403J1122334D01*
G01*
X115209666Y-160831597D01*
G75*
G02*
X116409403Y-159786666I1122334J-77403D01*
G01*
X116409403Y-159786666D01*
G75*
G02*
X117454334Y-160986403I-77403J-1122334D01*
G01*
X117414334Y-161566403D01*
G75*
G02*
X116214597Y-162611334I-1122334J77403D01*
G01*
G37*
G04 #@! TD.AperFunction*
G04 #@! TD*
G04 #@! TO.P,MX1,1,COL*
G04 #@! TO.N,COL0*
X111292000Y-142939000D03*
G04 #@! TA.AperFunction,ComponentPad*
G36*
G01*
X109230683Y-145236345D02*
X109230683Y-145236345D01*
G75*
G02*
X109144655Y-143647683I751317J837345D01*
G01*
X110454657Y-142187683D01*
G75*
G02*
X112043319Y-142101655I837345J-751317D01*
G01*
X112043319Y-142101655D01*
G75*
G02*
X112129347Y-143690317I-751317J-837345D01*
G01*
X110819345Y-145150317D01*
G75*
G02*
X109230683Y-145236345I-837345J751317D01*
G01*
G37*
G04 #@! TD.AperFunction*
G04 #@! TO.P,MX1,2,ROW*
G04 #@! TO.N,Net-(D1-Pad2)*
X116332000Y-141859000D03*
G04 #@! TA.AperFunction,ComponentPad*
G36*
G01*
X116214597Y-143561334D02*
X116214597Y-143561334D01*
G75*
G02*
X115169666Y-142361597I77403J1122334D01*
G01*
X115209666Y-141781597D01*
G75*
G02*
X116409403Y-140736666I1122334J-77403D01*
G01*
X116409403Y-140736666D01*
G75*
G02*
X117454334Y-141936403I-77403J-1122334D01*
G01*
X117414334Y-142516403D01*
G75*
G02*
X116214597Y-143561334I-1122334J77403D01*
G01*
G37*
G04 #@! TD.AperFunction*
G04 #@! TD*
D12*
G04 #@! TO.N,+5V*
X89408000Y-146812000D03*
X89408000Y-152654000D03*
X85375132Y-161532868D03*
X67310000Y-154686000D03*
X72771000Y-139827000D03*
X84455000Y-137795000D03*
G04 #@! TD*
D13*
G04 #@! TO.N,+5V*
X89408000Y-152654000D02*
X89408000Y-146812000D01*
X88403132Y-161532868D02*
X88657132Y-161532868D01*
X88657132Y-161532868D02*
X89408000Y-160782000D01*
X89408000Y-160782000D02*
X89408000Y-152654000D01*
X85375132Y-161532868D02*
X88403132Y-161532868D01*
X67310000Y-154686000D02*
X67310000Y-160274000D01*
X67310000Y-160274000D02*
X67310000Y-160528000D01*
X67310000Y-160528000D02*
X68314868Y-161532868D01*
X68314868Y-161532868D02*
X85375132Y-161532868D01*
X72771000Y-139827000D02*
X72771000Y-151892000D01*
X72771000Y-151892000D02*
X71120000Y-153543000D01*
X68453000Y-153543000D02*
X67310000Y-154686000D01*
X71120000Y-153543000D02*
X68453000Y-153543000D01*
X74803000Y-137795000D02*
X72771000Y-139827000D01*
X84455000Y-137795000D02*
X74803000Y-137795000D01*
D14*
G04 #@! TO.N,COL0*
X109982000Y-144399000D02*
X109982000Y-163449000D01*
G04 #@! TO.N,COL1*
X129032000Y-144399000D02*
X129032000Y-163449000D01*
G04 #@! TD*
M02*
