G04 #@! TF.GenerationSoftware,KiCad,Pcbnew,(5.99.0-1822-g1792479ca)*
G04 #@! TF.CreationDate,2020-06-16T18:07:24+08:00*
G04 #@! TF.ProjectId,ai03-pad-duplicate,61693033-2d70-4616-942d-6475706c6963,v01*
G04 #@! TF.SameCoordinates,Original*
G04 #@! TF.FileFunction,Soldermask,Bot*
G04 #@! TF.FilePolarity,Negative*
%FSLAX46Y46*%
G04 Gerber Fmt 4.6, Leading zero omitted, Abs format (unit mm)*
G04 Created by KiCad (PCBNEW (5.99.0-1822-g1792479ca)) date 2020-06-16 18:07:24*
%MOMM*%
%LPD*%
G01*
G04 APERTURE LIST*
%ADD10O,1.800000X2.800000*%
%ADD11C,1.850000*%
%ADD12C,2.350000*%
%ADD13C,4.087800*%
G04 APERTURE END LIST*
G04 #@! TO.C,Y1*
G36*
G01*
X75121880Y-170381000D02*
X75121880Y-171581000D01*
G75*
G02*
X75071880Y-171631000I-50000J0D01*
G01*
X73671880Y-171631000D01*
G75*
G02*
X73621880Y-171581000I0J50000D01*
G01*
X73621880Y-170381000D01*
G75*
G02*
X73671880Y-170331000I50000J0D01*
G01*
X75071880Y-170331000D01*
G75*
G02*
X75121880Y-170381000I0J-50000D01*
G01*
G37*
G36*
G01*
X72921880Y-170381000D02*
X72921880Y-171581000D01*
G75*
G02*
X72871880Y-171631000I-50000J0D01*
G01*
X71471880Y-171631000D01*
G75*
G02*
X71421880Y-171581000I0J50000D01*
G01*
X71421880Y-170381000D01*
G75*
G02*
X71471880Y-170331000I50000J0D01*
G01*
X72871880Y-170331000D01*
G75*
G02*
X72921880Y-170381000I0J-50000D01*
G01*
G37*
G36*
G01*
X72921880Y-172081000D02*
X72921880Y-173281000D01*
G75*
G02*
X72871880Y-173331000I-50000J0D01*
G01*
X71471880Y-173331000D01*
G75*
G02*
X71421880Y-173281000I0J50000D01*
G01*
X71421880Y-172081000D01*
G75*
G02*
X71471880Y-172031000I50000J0D01*
G01*
X72871880Y-172031000D01*
G75*
G02*
X72921880Y-172081000I0J-50000D01*
G01*
G37*
G36*
G01*
X75121880Y-172081000D02*
X75121880Y-173281000D01*
G75*
G02*
X75071880Y-173331000I-50000J0D01*
G01*
X73671880Y-173331000D01*
G75*
G02*
X73621880Y-173281000I0J50000D01*
G01*
X73621880Y-172081000D01*
G75*
G02*
X73671880Y-172031000I50000J0D01*
G01*
X75071880Y-172031000D01*
G75*
G02*
X75121880Y-172081000I0J-50000D01*
G01*
G37*
G04 #@! TD*
D10*
G04 #@! TO.C,USB1*
X94432000Y-136614000D03*
X101732000Y-136614000D03*
X101732000Y-141114000D03*
X94432000Y-141114000D03*
G36*
G01*
X96232000Y-139939000D02*
X96732000Y-139939000D01*
G75*
G02*
X96782000Y-139989000I0J-50000D01*
G01*
X96782000Y-142239000D01*
G75*
G02*
X96732000Y-142289000I-50000J0D01*
G01*
X96232000Y-142289000D01*
G75*
G02*
X96182000Y-142239000I0J50000D01*
G01*
X96182000Y-139989000D01*
G75*
G02*
X96232000Y-139939000I50000J0D01*
G01*
G37*
G36*
G01*
X97032000Y-139939000D02*
X97532000Y-139939000D01*
G75*
G02*
X97582000Y-139989000I0J-50000D01*
G01*
X97582000Y-142239000D01*
G75*
G02*
X97532000Y-142289000I-50000J0D01*
G01*
X97032000Y-142289000D01*
G75*
G02*
X96982000Y-142239000I0J50000D01*
G01*
X96982000Y-139989000D01*
G75*
G02*
X97032000Y-139939000I50000J0D01*
G01*
G37*
G36*
G01*
X97832000Y-139939000D02*
X98332000Y-139939000D01*
G75*
G02*
X98382000Y-139989000I0J-50000D01*
G01*
X98382000Y-142239000D01*
G75*
G02*
X98332000Y-142289000I-50000J0D01*
G01*
X97832000Y-142289000D01*
G75*
G02*
X97782000Y-142239000I0J50000D01*
G01*
X97782000Y-139989000D01*
G75*
G02*
X97832000Y-139939000I50000J0D01*
G01*
G37*
G36*
G01*
X98632000Y-139939000D02*
X99132000Y-139939000D01*
G75*
G02*
X99182000Y-139989000I0J-50000D01*
G01*
X99182000Y-142239000D01*
G75*
G02*
X99132000Y-142289000I-50000J0D01*
G01*
X98632000Y-142289000D01*
G75*
G02*
X98582000Y-142239000I0J50000D01*
G01*
X98582000Y-139989000D01*
G75*
G02*
X98632000Y-139939000I50000J0D01*
G01*
G37*
G36*
G01*
X99432000Y-139939000D02*
X99932000Y-139939000D01*
G75*
G02*
X99982000Y-139989000I0J-50000D01*
G01*
X99982000Y-142239000D01*
G75*
G02*
X99932000Y-142289000I-50000J0D01*
G01*
X99432000Y-142289000D01*
G75*
G02*
X99382000Y-142239000I0J50000D01*
G01*
X99382000Y-139989000D01*
G75*
G02*
X99432000Y-139939000I50000J0D01*
G01*
G37*
G04 #@! TD*
G04 #@! TO.C,U1*
G36*
G01*
X85047000Y-147119000D02*
X84497000Y-147119000D01*
G75*
G02*
X84447000Y-147069000I0J50000D01*
G01*
X84447000Y-145569000D01*
G75*
G02*
X84497000Y-145519000I50000J0D01*
G01*
X85047000Y-145519000D01*
G75*
G02*
X85097000Y-145569000I0J-50000D01*
G01*
X85097000Y-147069000D01*
G75*
G02*
X85047000Y-147119000I-50000J0D01*
G01*
G37*
G36*
G01*
X84247000Y-147119000D02*
X83697000Y-147119000D01*
G75*
G02*
X83647000Y-147069000I0J50000D01*
G01*
X83647000Y-145569000D01*
G75*
G02*
X83697000Y-145519000I50000J0D01*
G01*
X84247000Y-145519000D01*
G75*
G02*
X84297000Y-145569000I0J-50000D01*
G01*
X84297000Y-147069000D01*
G75*
G02*
X84247000Y-147119000I-50000J0D01*
G01*
G37*
G36*
G01*
X83447000Y-147119000D02*
X82897000Y-147119000D01*
G75*
G02*
X82847000Y-147069000I0J50000D01*
G01*
X82847000Y-145569000D01*
G75*
G02*
X82897000Y-145519000I50000J0D01*
G01*
X83447000Y-145519000D01*
G75*
G02*
X83497000Y-145569000I0J-50000D01*
G01*
X83497000Y-147069000D01*
G75*
G02*
X83447000Y-147119000I-50000J0D01*
G01*
G37*
G36*
G01*
X82647000Y-147119000D02*
X82097000Y-147119000D01*
G75*
G02*
X82047000Y-147069000I0J50000D01*
G01*
X82047000Y-145569000D01*
G75*
G02*
X82097000Y-145519000I50000J0D01*
G01*
X82647000Y-145519000D01*
G75*
G02*
X82697000Y-145569000I0J-50000D01*
G01*
X82697000Y-147069000D01*
G75*
G02*
X82647000Y-147119000I-50000J0D01*
G01*
G37*
G36*
G01*
X81847000Y-147119000D02*
X81297000Y-147119000D01*
G75*
G02*
X81247000Y-147069000I0J50000D01*
G01*
X81247000Y-145569000D01*
G75*
G02*
X81297000Y-145519000I50000J0D01*
G01*
X81847000Y-145519000D01*
G75*
G02*
X81897000Y-145569000I0J-50000D01*
G01*
X81897000Y-147069000D01*
G75*
G02*
X81847000Y-147119000I-50000J0D01*
G01*
G37*
G36*
G01*
X81047000Y-147119000D02*
X80497000Y-147119000D01*
G75*
G02*
X80447000Y-147069000I0J50000D01*
G01*
X80447000Y-145569000D01*
G75*
G02*
X80497000Y-145519000I50000J0D01*
G01*
X81047000Y-145519000D01*
G75*
G02*
X81097000Y-145569000I0J-50000D01*
G01*
X81097000Y-147069000D01*
G75*
G02*
X81047000Y-147119000I-50000J0D01*
G01*
G37*
G36*
G01*
X80247000Y-147119000D02*
X79697000Y-147119000D01*
G75*
G02*
X79647000Y-147069000I0J50000D01*
G01*
X79647000Y-145569000D01*
G75*
G02*
X79697000Y-145519000I50000J0D01*
G01*
X80247000Y-145519000D01*
G75*
G02*
X80297000Y-145569000I0J-50000D01*
G01*
X80297000Y-147069000D01*
G75*
G02*
X80247000Y-147119000I-50000J0D01*
G01*
G37*
G36*
G01*
X79447000Y-147119000D02*
X78897000Y-147119000D01*
G75*
G02*
X78847000Y-147069000I0J50000D01*
G01*
X78847000Y-145569000D01*
G75*
G02*
X78897000Y-145519000I50000J0D01*
G01*
X79447000Y-145519000D01*
G75*
G02*
X79497000Y-145569000I0J-50000D01*
G01*
X79497000Y-147069000D01*
G75*
G02*
X79447000Y-147119000I-50000J0D01*
G01*
G37*
G36*
G01*
X78647000Y-147119000D02*
X78097000Y-147119000D01*
G75*
G02*
X78047000Y-147069000I0J50000D01*
G01*
X78047000Y-145569000D01*
G75*
G02*
X78097000Y-145519000I50000J0D01*
G01*
X78647000Y-145519000D01*
G75*
G02*
X78697000Y-145569000I0J-50000D01*
G01*
X78697000Y-147069000D01*
G75*
G02*
X78647000Y-147119000I-50000J0D01*
G01*
G37*
G36*
G01*
X77847000Y-147119000D02*
X77297000Y-147119000D01*
G75*
G02*
X77247000Y-147069000I0J50000D01*
G01*
X77247000Y-145569000D01*
G75*
G02*
X77297000Y-145519000I50000J0D01*
G01*
X77847000Y-145519000D01*
G75*
G02*
X77897000Y-145569000I0J-50000D01*
G01*
X77897000Y-147069000D01*
G75*
G02*
X77847000Y-147119000I-50000J0D01*
G01*
G37*
G36*
G01*
X77047000Y-147119000D02*
X76497000Y-147119000D01*
G75*
G02*
X76447000Y-147069000I0J50000D01*
G01*
X76447000Y-145569000D01*
G75*
G02*
X76497000Y-145519000I50000J0D01*
G01*
X77047000Y-145519000D01*
G75*
G02*
X77097000Y-145569000I0J-50000D01*
G01*
X77097000Y-147069000D01*
G75*
G02*
X77047000Y-147119000I-50000J0D01*
G01*
G37*
G36*
G01*
X75872000Y-147744000D02*
X75872000Y-148294000D01*
G75*
G02*
X75822000Y-148344000I-50000J0D01*
G01*
X74322000Y-148344000D01*
G75*
G02*
X74272000Y-148294000I0J50000D01*
G01*
X74272000Y-147744000D01*
G75*
G02*
X74322000Y-147694000I50000J0D01*
G01*
X75822000Y-147694000D01*
G75*
G02*
X75872000Y-147744000I0J-50000D01*
G01*
G37*
G36*
G01*
X75872000Y-148544000D02*
X75872000Y-149094000D01*
G75*
G02*
X75822000Y-149144000I-50000J0D01*
G01*
X74322000Y-149144000D01*
G75*
G02*
X74272000Y-149094000I0J50000D01*
G01*
X74272000Y-148544000D01*
G75*
G02*
X74322000Y-148494000I50000J0D01*
G01*
X75822000Y-148494000D01*
G75*
G02*
X75872000Y-148544000I0J-50000D01*
G01*
G37*
G36*
G01*
X75872000Y-149344000D02*
X75872000Y-149894000D01*
G75*
G02*
X75822000Y-149944000I-50000J0D01*
G01*
X74322000Y-149944000D01*
G75*
G02*
X74272000Y-149894000I0J50000D01*
G01*
X74272000Y-149344000D01*
G75*
G02*
X74322000Y-149294000I50000J0D01*
G01*
X75822000Y-149294000D01*
G75*
G02*
X75872000Y-149344000I0J-50000D01*
G01*
G37*
G36*
G01*
X75872000Y-150144000D02*
X75872000Y-150694000D01*
G75*
G02*
X75822000Y-150744000I-50000J0D01*
G01*
X74322000Y-150744000D01*
G75*
G02*
X74272000Y-150694000I0J50000D01*
G01*
X74272000Y-150144000D01*
G75*
G02*
X74322000Y-150094000I50000J0D01*
G01*
X75822000Y-150094000D01*
G75*
G02*
X75872000Y-150144000I0J-50000D01*
G01*
G37*
G36*
G01*
X75872000Y-150944000D02*
X75872000Y-151494000D01*
G75*
G02*
X75822000Y-151544000I-50000J0D01*
G01*
X74322000Y-151544000D01*
G75*
G02*
X74272000Y-151494000I0J50000D01*
G01*
X74272000Y-150944000D01*
G75*
G02*
X74322000Y-150894000I50000J0D01*
G01*
X75822000Y-150894000D01*
G75*
G02*
X75872000Y-150944000I0J-50000D01*
G01*
G37*
G36*
G01*
X75872000Y-151744000D02*
X75872000Y-152294000D01*
G75*
G02*
X75822000Y-152344000I-50000J0D01*
G01*
X74322000Y-152344000D01*
G75*
G02*
X74272000Y-152294000I0J50000D01*
G01*
X74272000Y-151744000D01*
G75*
G02*
X74322000Y-151694000I50000J0D01*
G01*
X75822000Y-151694000D01*
G75*
G02*
X75872000Y-151744000I0J-50000D01*
G01*
G37*
G36*
G01*
X75872000Y-152544000D02*
X75872000Y-153094000D01*
G75*
G02*
X75822000Y-153144000I-50000J0D01*
G01*
X74322000Y-153144000D01*
G75*
G02*
X74272000Y-153094000I0J50000D01*
G01*
X74272000Y-152544000D01*
G75*
G02*
X74322000Y-152494000I50000J0D01*
G01*
X75822000Y-152494000D01*
G75*
G02*
X75872000Y-152544000I0J-50000D01*
G01*
G37*
G36*
G01*
X75872000Y-153344000D02*
X75872000Y-153894000D01*
G75*
G02*
X75822000Y-153944000I-50000J0D01*
G01*
X74322000Y-153944000D01*
G75*
G02*
X74272000Y-153894000I0J50000D01*
G01*
X74272000Y-153344000D01*
G75*
G02*
X74322000Y-153294000I50000J0D01*
G01*
X75822000Y-153294000D01*
G75*
G02*
X75872000Y-153344000I0J-50000D01*
G01*
G37*
G36*
G01*
X75872000Y-154144000D02*
X75872000Y-154694000D01*
G75*
G02*
X75822000Y-154744000I-50000J0D01*
G01*
X74322000Y-154744000D01*
G75*
G02*
X74272000Y-154694000I0J50000D01*
G01*
X74272000Y-154144000D01*
G75*
G02*
X74322000Y-154094000I50000J0D01*
G01*
X75822000Y-154094000D01*
G75*
G02*
X75872000Y-154144000I0J-50000D01*
G01*
G37*
G36*
G01*
X75872000Y-154944000D02*
X75872000Y-155494000D01*
G75*
G02*
X75822000Y-155544000I-50000J0D01*
G01*
X74322000Y-155544000D01*
G75*
G02*
X74272000Y-155494000I0J50000D01*
G01*
X74272000Y-154944000D01*
G75*
G02*
X74322000Y-154894000I50000J0D01*
G01*
X75822000Y-154894000D01*
G75*
G02*
X75872000Y-154944000I0J-50000D01*
G01*
G37*
G36*
G01*
X75872000Y-155744000D02*
X75872000Y-156294000D01*
G75*
G02*
X75822000Y-156344000I-50000J0D01*
G01*
X74322000Y-156344000D01*
G75*
G02*
X74272000Y-156294000I0J50000D01*
G01*
X74272000Y-155744000D01*
G75*
G02*
X74322000Y-155694000I50000J0D01*
G01*
X75822000Y-155694000D01*
G75*
G02*
X75872000Y-155744000I0J-50000D01*
G01*
G37*
G36*
G01*
X77047000Y-158519000D02*
X76497000Y-158519000D01*
G75*
G02*
X76447000Y-158469000I0J50000D01*
G01*
X76447000Y-156969000D01*
G75*
G02*
X76497000Y-156919000I50000J0D01*
G01*
X77047000Y-156919000D01*
G75*
G02*
X77097000Y-156969000I0J-50000D01*
G01*
X77097000Y-158469000D01*
G75*
G02*
X77047000Y-158519000I-50000J0D01*
G01*
G37*
G36*
G01*
X77847000Y-158519000D02*
X77297000Y-158519000D01*
G75*
G02*
X77247000Y-158469000I0J50000D01*
G01*
X77247000Y-156969000D01*
G75*
G02*
X77297000Y-156919000I50000J0D01*
G01*
X77847000Y-156919000D01*
G75*
G02*
X77897000Y-156969000I0J-50000D01*
G01*
X77897000Y-158469000D01*
G75*
G02*
X77847000Y-158519000I-50000J0D01*
G01*
G37*
G36*
G01*
X78647000Y-158519000D02*
X78097000Y-158519000D01*
G75*
G02*
X78047000Y-158469000I0J50000D01*
G01*
X78047000Y-156969000D01*
G75*
G02*
X78097000Y-156919000I50000J0D01*
G01*
X78647000Y-156919000D01*
G75*
G02*
X78697000Y-156969000I0J-50000D01*
G01*
X78697000Y-158469000D01*
G75*
G02*
X78647000Y-158519000I-50000J0D01*
G01*
G37*
G36*
G01*
X79447000Y-158519000D02*
X78897000Y-158519000D01*
G75*
G02*
X78847000Y-158469000I0J50000D01*
G01*
X78847000Y-156969000D01*
G75*
G02*
X78897000Y-156919000I50000J0D01*
G01*
X79447000Y-156919000D01*
G75*
G02*
X79497000Y-156969000I0J-50000D01*
G01*
X79497000Y-158469000D01*
G75*
G02*
X79447000Y-158519000I-50000J0D01*
G01*
G37*
G36*
G01*
X80247000Y-158519000D02*
X79697000Y-158519000D01*
G75*
G02*
X79647000Y-158469000I0J50000D01*
G01*
X79647000Y-156969000D01*
G75*
G02*
X79697000Y-156919000I50000J0D01*
G01*
X80247000Y-156919000D01*
G75*
G02*
X80297000Y-156969000I0J-50000D01*
G01*
X80297000Y-158469000D01*
G75*
G02*
X80247000Y-158519000I-50000J0D01*
G01*
G37*
G36*
G01*
X81047000Y-158519000D02*
X80497000Y-158519000D01*
G75*
G02*
X80447000Y-158469000I0J50000D01*
G01*
X80447000Y-156969000D01*
G75*
G02*
X80497000Y-156919000I50000J0D01*
G01*
X81047000Y-156919000D01*
G75*
G02*
X81097000Y-156969000I0J-50000D01*
G01*
X81097000Y-158469000D01*
G75*
G02*
X81047000Y-158519000I-50000J0D01*
G01*
G37*
G36*
G01*
X81847000Y-158519000D02*
X81297000Y-158519000D01*
G75*
G02*
X81247000Y-158469000I0J50000D01*
G01*
X81247000Y-156969000D01*
G75*
G02*
X81297000Y-156919000I50000J0D01*
G01*
X81847000Y-156919000D01*
G75*
G02*
X81897000Y-156969000I0J-50000D01*
G01*
X81897000Y-158469000D01*
G75*
G02*
X81847000Y-158519000I-50000J0D01*
G01*
G37*
G36*
G01*
X82647000Y-158519000D02*
X82097000Y-158519000D01*
G75*
G02*
X82047000Y-158469000I0J50000D01*
G01*
X82047000Y-156969000D01*
G75*
G02*
X82097000Y-156919000I50000J0D01*
G01*
X82647000Y-156919000D01*
G75*
G02*
X82697000Y-156969000I0J-50000D01*
G01*
X82697000Y-158469000D01*
G75*
G02*
X82647000Y-158519000I-50000J0D01*
G01*
G37*
G36*
G01*
X83447000Y-158519000D02*
X82897000Y-158519000D01*
G75*
G02*
X82847000Y-158469000I0J50000D01*
G01*
X82847000Y-156969000D01*
G75*
G02*
X82897000Y-156919000I50000J0D01*
G01*
X83447000Y-156919000D01*
G75*
G02*
X83497000Y-156969000I0J-50000D01*
G01*
X83497000Y-158469000D01*
G75*
G02*
X83447000Y-158519000I-50000J0D01*
G01*
G37*
G36*
G01*
X84247000Y-158519000D02*
X83697000Y-158519000D01*
G75*
G02*
X83647000Y-158469000I0J50000D01*
G01*
X83647000Y-156969000D01*
G75*
G02*
X83697000Y-156919000I50000J0D01*
G01*
X84247000Y-156919000D01*
G75*
G02*
X84297000Y-156969000I0J-50000D01*
G01*
X84297000Y-158469000D01*
G75*
G02*
X84247000Y-158519000I-50000J0D01*
G01*
G37*
G36*
G01*
X85047000Y-158519000D02*
X84497000Y-158519000D01*
G75*
G02*
X84447000Y-158469000I0J50000D01*
G01*
X84447000Y-156969000D01*
G75*
G02*
X84497000Y-156919000I50000J0D01*
G01*
X85047000Y-156919000D01*
G75*
G02*
X85097000Y-156969000I0J-50000D01*
G01*
X85097000Y-158469000D01*
G75*
G02*
X85047000Y-158519000I-50000J0D01*
G01*
G37*
G36*
G01*
X87272000Y-155744000D02*
X87272000Y-156294000D01*
G75*
G02*
X87222000Y-156344000I-50000J0D01*
G01*
X85722000Y-156344000D01*
G75*
G02*
X85672000Y-156294000I0J50000D01*
G01*
X85672000Y-155744000D01*
G75*
G02*
X85722000Y-155694000I50000J0D01*
G01*
X87222000Y-155694000D01*
G75*
G02*
X87272000Y-155744000I0J-50000D01*
G01*
G37*
G36*
G01*
X87272000Y-154944000D02*
X87272000Y-155494000D01*
G75*
G02*
X87222000Y-155544000I-50000J0D01*
G01*
X85722000Y-155544000D01*
G75*
G02*
X85672000Y-155494000I0J50000D01*
G01*
X85672000Y-154944000D01*
G75*
G02*
X85722000Y-154894000I50000J0D01*
G01*
X87222000Y-154894000D01*
G75*
G02*
X87272000Y-154944000I0J-50000D01*
G01*
G37*
G36*
G01*
X87272000Y-154144000D02*
X87272000Y-154694000D01*
G75*
G02*
X87222000Y-154744000I-50000J0D01*
G01*
X85722000Y-154744000D01*
G75*
G02*
X85672000Y-154694000I0J50000D01*
G01*
X85672000Y-154144000D01*
G75*
G02*
X85722000Y-154094000I50000J0D01*
G01*
X87222000Y-154094000D01*
G75*
G02*
X87272000Y-154144000I0J-50000D01*
G01*
G37*
G36*
G01*
X87272000Y-153344000D02*
X87272000Y-153894000D01*
G75*
G02*
X87222000Y-153944000I-50000J0D01*
G01*
X85722000Y-153944000D01*
G75*
G02*
X85672000Y-153894000I0J50000D01*
G01*
X85672000Y-153344000D01*
G75*
G02*
X85722000Y-153294000I50000J0D01*
G01*
X87222000Y-153294000D01*
G75*
G02*
X87272000Y-153344000I0J-50000D01*
G01*
G37*
G36*
G01*
X87272000Y-152544000D02*
X87272000Y-153094000D01*
G75*
G02*
X87222000Y-153144000I-50000J0D01*
G01*
X85722000Y-153144000D01*
G75*
G02*
X85672000Y-153094000I0J50000D01*
G01*
X85672000Y-152544000D01*
G75*
G02*
X85722000Y-152494000I50000J0D01*
G01*
X87222000Y-152494000D01*
G75*
G02*
X87272000Y-152544000I0J-50000D01*
G01*
G37*
G36*
G01*
X87272000Y-151744000D02*
X87272000Y-152294000D01*
G75*
G02*
X87222000Y-152344000I-50000J0D01*
G01*
X85722000Y-152344000D01*
G75*
G02*
X85672000Y-152294000I0J50000D01*
G01*
X85672000Y-151744000D01*
G75*
G02*
X85722000Y-151694000I50000J0D01*
G01*
X87222000Y-151694000D01*
G75*
G02*
X87272000Y-151744000I0J-50000D01*
G01*
G37*
G36*
G01*
X87272000Y-150944000D02*
X87272000Y-151494000D01*
G75*
G02*
X87222000Y-151544000I-50000J0D01*
G01*
X85722000Y-151544000D01*
G75*
G02*
X85672000Y-151494000I0J50000D01*
G01*
X85672000Y-150944000D01*
G75*
G02*
X85722000Y-150894000I50000J0D01*
G01*
X87222000Y-150894000D01*
G75*
G02*
X87272000Y-150944000I0J-50000D01*
G01*
G37*
G36*
G01*
X87272000Y-150144000D02*
X87272000Y-150694000D01*
G75*
G02*
X87222000Y-150744000I-50000J0D01*
G01*
X85722000Y-150744000D01*
G75*
G02*
X85672000Y-150694000I0J50000D01*
G01*
X85672000Y-150144000D01*
G75*
G02*
X85722000Y-150094000I50000J0D01*
G01*
X87222000Y-150094000D01*
G75*
G02*
X87272000Y-150144000I0J-50000D01*
G01*
G37*
G36*
G01*
X87272000Y-149344000D02*
X87272000Y-149894000D01*
G75*
G02*
X87222000Y-149944000I-50000J0D01*
G01*
X85722000Y-149944000D01*
G75*
G02*
X85672000Y-149894000I0J50000D01*
G01*
X85672000Y-149344000D01*
G75*
G02*
X85722000Y-149294000I50000J0D01*
G01*
X87222000Y-149294000D01*
G75*
G02*
X87272000Y-149344000I0J-50000D01*
G01*
G37*
G36*
G01*
X87272000Y-148544000D02*
X87272000Y-149094000D01*
G75*
G02*
X87222000Y-149144000I-50000J0D01*
G01*
X85722000Y-149144000D01*
G75*
G02*
X85672000Y-149094000I0J50000D01*
G01*
X85672000Y-148544000D01*
G75*
G02*
X85722000Y-148494000I50000J0D01*
G01*
X87222000Y-148494000D01*
G75*
G02*
X87272000Y-148544000I0J-50000D01*
G01*
G37*
G36*
G01*
X87272000Y-147744000D02*
X87272000Y-148294000D01*
G75*
G02*
X87222000Y-148344000I-50000J0D01*
G01*
X85722000Y-148344000D01*
G75*
G02*
X85672000Y-148294000I0J50000D01*
G01*
X85672000Y-147744000D01*
G75*
G02*
X85722000Y-147694000I50000J0D01*
G01*
X87222000Y-147694000D01*
G75*
G02*
X87272000Y-147744000I0J-50000D01*
G01*
G37*
G04 #@! TD*
G04 #@! TO.C,SW1*
G36*
G01*
X102602000Y-173893000D02*
X102602000Y-174993000D01*
G75*
G02*
X102552000Y-175043000I-50000J0D01*
G01*
X100752000Y-175043000D01*
G75*
G02*
X100702000Y-174993000I0J50000D01*
G01*
X100702000Y-173893000D01*
G75*
G02*
X100752000Y-173843000I50000J0D01*
G01*
X102552000Y-173843000D01*
G75*
G02*
X102602000Y-173893000I0J-50000D01*
G01*
G37*
G36*
G01*
X96402000Y-170193000D02*
X96402000Y-171293000D01*
G75*
G02*
X96352000Y-171343000I-50000J0D01*
G01*
X94552000Y-171343000D01*
G75*
G02*
X94502000Y-171293000I0J50000D01*
G01*
X94502000Y-170193000D01*
G75*
G02*
X94552000Y-170143000I50000J0D01*
G01*
X96352000Y-170143000D01*
G75*
G02*
X96402000Y-170193000I0J-50000D01*
G01*
G37*
G36*
G01*
X102602000Y-170193000D02*
X102602000Y-171293000D01*
G75*
G02*
X102552000Y-171343000I-50000J0D01*
G01*
X100752000Y-171343000D01*
G75*
G02*
X100702000Y-171293000I0J50000D01*
G01*
X100702000Y-170193000D01*
G75*
G02*
X100752000Y-170143000I50000J0D01*
G01*
X102552000Y-170143000D01*
G75*
G02*
X102602000Y-170193000I0J-50000D01*
G01*
G37*
G36*
G01*
X96402000Y-173893000D02*
X96402000Y-174993000D01*
G75*
G02*
X96352000Y-175043000I-50000J0D01*
G01*
X94552000Y-175043000D01*
G75*
G02*
X94502000Y-174993000I0J50000D01*
G01*
X94502000Y-173893000D01*
G75*
G02*
X94552000Y-173843000I50000J0D01*
G01*
X96352000Y-173843000D01*
G75*
G02*
X96402000Y-173893000I0J-50000D01*
G01*
G37*
G04 #@! TD*
G04 #@! TO.C,R4*
G36*
G01*
X70077250Y-146539000D02*
X69114750Y-146539000D01*
G75*
G02*
X68846000Y-146270250I0J268750D01*
G01*
X68846000Y-145732750D01*
G75*
G02*
X69114750Y-145464000I268750J0D01*
G01*
X70077250Y-145464000D01*
G75*
G02*
X70346000Y-145732750I0J-268750D01*
G01*
X70346000Y-146270250D01*
G75*
G02*
X70077250Y-146539000I-268750J0D01*
G01*
G37*
G36*
G01*
X70077250Y-148414000D02*
X69114750Y-148414000D01*
G75*
G02*
X68846000Y-148145250I0J268750D01*
G01*
X68846000Y-147607750D01*
G75*
G02*
X69114750Y-147339000I268750J0D01*
G01*
X70077250Y-147339000D01*
G75*
G02*
X70346000Y-147607750I0J-268750D01*
G01*
X70346000Y-148145250D01*
G75*
G02*
X70077250Y-148414000I-268750J0D01*
G01*
G37*
G04 #@! TD*
G04 #@! TO.C,R3*
G36*
G01*
X92937250Y-161017000D02*
X91974750Y-161017000D01*
G75*
G02*
X91706000Y-160748250I0J268750D01*
G01*
X91706000Y-160210750D01*
G75*
G02*
X91974750Y-159942000I268750J0D01*
G01*
X92937250Y-159942000D01*
G75*
G02*
X93206000Y-160210750I0J-268750D01*
G01*
X93206000Y-160748250D01*
G75*
G02*
X92937250Y-161017000I-268750J0D01*
G01*
G37*
G36*
G01*
X92937250Y-162892000D02*
X91974750Y-162892000D01*
G75*
G02*
X91706000Y-162623250I0J268750D01*
G01*
X91706000Y-162085750D01*
G75*
G02*
X91974750Y-161817000I268750J0D01*
G01*
X92937250Y-161817000D01*
G75*
G02*
X93206000Y-162085750I0J-268750D01*
G01*
X93206000Y-162623250D01*
G75*
G02*
X92937250Y-162892000I-268750J0D01*
G01*
G37*
G04 #@! TD*
G04 #@! TO.C,R2*
G36*
G01*
X100341250Y-147898000D02*
X99378750Y-147898000D01*
G75*
G02*
X99110000Y-147629250I0J268750D01*
G01*
X99110000Y-147091750D01*
G75*
G02*
X99378750Y-146823000I268750J0D01*
G01*
X100341250Y-146823000D01*
G75*
G02*
X100610000Y-147091750I0J-268750D01*
G01*
X100610000Y-147629250D01*
G75*
G02*
X100341250Y-147898000I-268750J0D01*
G01*
G37*
G36*
G01*
X100341250Y-149773000D02*
X99378750Y-149773000D01*
G75*
G02*
X99110000Y-149504250I0J268750D01*
G01*
X99110000Y-148966750D01*
G75*
G02*
X99378750Y-148698000I268750J0D01*
G01*
X100341250Y-148698000D01*
G75*
G02*
X100610000Y-148966750I0J-268750D01*
G01*
X100610000Y-149504250D01*
G75*
G02*
X100341250Y-149773000I-268750J0D01*
G01*
G37*
G04 #@! TD*
G04 #@! TO.C,R1*
G36*
G01*
X96330750Y-148698000D02*
X97293250Y-148698000D01*
G75*
G02*
X97562000Y-148966750I0J-268750D01*
G01*
X97562000Y-149504250D01*
G75*
G02*
X97293250Y-149773000I-268750J0D01*
G01*
X96330750Y-149773000D01*
G75*
G02*
X96062000Y-149504250I0J268750D01*
G01*
X96062000Y-148966750D01*
G75*
G02*
X96330750Y-148698000I268750J0D01*
G01*
G37*
G36*
G01*
X96330750Y-146823000D02*
X97293250Y-146823000D01*
G75*
G02*
X97562000Y-147091750I0J-268750D01*
G01*
X97562000Y-147629250D01*
G75*
G02*
X97293250Y-147898000I-268750J0D01*
G01*
X96330750Y-147898000D01*
G75*
G02*
X96062000Y-147629250I0J268750D01*
G01*
X96062000Y-147091750D01*
G75*
G02*
X96330750Y-146823000I268750J0D01*
G01*
G37*
G04 #@! TD*
D11*
G04 #@! TO.C,MX4*
X137922000Y-165989000D03*
X127762000Y-165989000D03*
D12*
X130342000Y-161989000D03*
D13*
X132842000Y-165989000D03*
G36*
G01*
X128247291Y-164323560D02*
X128247291Y-164323561D01*
G75*
G02*
X128157439Y-162664291I784709J874561D01*
G01*
X129467441Y-161204291D01*
G75*
G02*
X131126711Y-161114439I874561J-784709D01*
G01*
X131126711Y-161114439D01*
G75*
G02*
X131216563Y-162773709I-784709J-874561D01*
G01*
X129906561Y-164233709D01*
G75*
G02*
X128247291Y-164323561I-874561J784709D01*
G01*
G37*
D12*
X135382000Y-160909000D03*
G36*
G01*
X135261157Y-162661216D02*
X135261157Y-162661216D01*
G75*
G02*
X134169784Y-161408157I80843J1172216D01*
G01*
X134209784Y-160828157D01*
G75*
G02*
X135462843Y-159736784I1172216J-80843D01*
G01*
X135462843Y-159736784D01*
G75*
G02*
X136554216Y-160989843I-80843J-1172216D01*
G01*
X136514216Y-161569843D01*
G75*
G02*
X135261157Y-162661216I-1172216J80843D01*
G01*
G37*
G04 #@! TD*
D11*
G04 #@! TO.C,MX3*
X137922000Y-146939000D03*
X127762000Y-146939000D03*
D12*
X130342000Y-142939000D03*
D13*
X132842000Y-146939000D03*
G36*
G01*
X128247291Y-145273560D02*
X128247291Y-145273561D01*
G75*
G02*
X128157439Y-143614291I784709J874561D01*
G01*
X129467441Y-142154291D01*
G75*
G02*
X131126711Y-142064439I874561J-784709D01*
G01*
X131126711Y-142064439D01*
G75*
G02*
X131216563Y-143723709I-784709J-874561D01*
G01*
X129906561Y-145183709D01*
G75*
G02*
X128247291Y-145273561I-874561J784709D01*
G01*
G37*
D12*
X135382000Y-141859000D03*
G36*
G01*
X135261157Y-143611216D02*
X135261157Y-143611216D01*
G75*
G02*
X134169784Y-142358157I80843J1172216D01*
G01*
X134209784Y-141778157D01*
G75*
G02*
X135462843Y-140686784I1172216J-80843D01*
G01*
X135462843Y-140686784D01*
G75*
G02*
X136554216Y-141939843I-80843J-1172216D01*
G01*
X136514216Y-142519843D01*
G75*
G02*
X135261157Y-143611216I-1172216J80843D01*
G01*
G37*
G04 #@! TD*
D11*
G04 #@! TO.C,MX2*
X118872000Y-165989000D03*
X108712000Y-165989000D03*
D12*
X111292000Y-161989000D03*
D13*
X113792000Y-165989000D03*
G36*
G01*
X109197291Y-164323560D02*
X109197291Y-164323561D01*
G75*
G02*
X109107439Y-162664291I784709J874561D01*
G01*
X110417441Y-161204291D01*
G75*
G02*
X112076711Y-161114439I874561J-784709D01*
G01*
X112076711Y-161114439D01*
G75*
G02*
X112166563Y-162773709I-784709J-874561D01*
G01*
X110856561Y-164233709D01*
G75*
G02*
X109197291Y-164323561I-874561J784709D01*
G01*
G37*
D12*
X116332000Y-160909000D03*
G36*
G01*
X116211157Y-162661216D02*
X116211157Y-162661216D01*
G75*
G02*
X115119784Y-161408157I80843J1172216D01*
G01*
X115159784Y-160828157D01*
G75*
G02*
X116412843Y-159736784I1172216J-80843D01*
G01*
X116412843Y-159736784D01*
G75*
G02*
X117504216Y-160989843I-80843J-1172216D01*
G01*
X117464216Y-161569843D01*
G75*
G02*
X116211157Y-162661216I-1172216J80843D01*
G01*
G37*
G04 #@! TD*
D11*
G04 #@! TO.C,MX1*
X118872000Y-146939000D03*
X108712000Y-146939000D03*
D12*
X111292000Y-142939000D03*
D13*
X113792000Y-146939000D03*
G36*
G01*
X109197291Y-145273560D02*
X109197291Y-145273561D01*
G75*
G02*
X109107439Y-143614291I784709J874561D01*
G01*
X110417441Y-142154291D01*
G75*
G02*
X112076711Y-142064439I874561J-784709D01*
G01*
X112076711Y-142064439D01*
G75*
G02*
X112166563Y-143723709I-784709J-874561D01*
G01*
X110856561Y-145183709D01*
G75*
G02*
X109197291Y-145273561I-874561J784709D01*
G01*
G37*
D12*
X116332000Y-141859000D03*
G36*
G01*
X116211157Y-143611216D02*
X116211157Y-143611216D01*
G75*
G02*
X115119784Y-142358157I80843J1172216D01*
G01*
X115159784Y-141778157D01*
G75*
G02*
X116412843Y-140686784I1172216J-80843D01*
G01*
X116412843Y-140686784D01*
G75*
G02*
X117504216Y-141939843I-80843J-1172216D01*
G01*
X117464216Y-142519843D01*
G75*
G02*
X116211157Y-143611216I-1172216J80843D01*
G01*
G37*
G04 #@! TD*
G04 #@! TO.C,F1*
G36*
G01*
X90698000Y-141388000D02*
X89388000Y-141388000D01*
G75*
G02*
X89118000Y-141118000I0J270000D01*
G01*
X89118000Y-140308000D01*
G75*
G02*
X89388000Y-140038000I270000J0D01*
G01*
X90698000Y-140038000D01*
G75*
G02*
X90968000Y-140308000I0J-270000D01*
G01*
X90968000Y-141118000D01*
G75*
G02*
X90698000Y-141388000I-270000J0D01*
G01*
G37*
G36*
G01*
X90698000Y-144188000D02*
X89388000Y-144188000D01*
G75*
G02*
X89118000Y-143918000I0J270000D01*
G01*
X89118000Y-143108000D01*
G75*
G02*
X89388000Y-142838000I270000J0D01*
G01*
X90698000Y-142838000D01*
G75*
G02*
X90968000Y-143108000I0J-270000D01*
G01*
X90968000Y-143918000D01*
G75*
G02*
X90698000Y-144188000I-270000J0D01*
G01*
G37*
G04 #@! TD*
G04 #@! TO.C,D4*
G36*
G01*
X138804000Y-173771000D02*
X138804000Y-174971000D01*
G75*
G02*
X138754000Y-175021000I-50000J0D01*
G01*
X137854000Y-175021000D01*
G75*
G02*
X137804000Y-174971000I0J50000D01*
G01*
X137804000Y-173771000D01*
G75*
G02*
X137854000Y-173721000I50000J0D01*
G01*
X138754000Y-173721000D01*
G75*
G02*
X138804000Y-173771000I0J-50000D01*
G01*
G37*
G36*
G01*
X142104000Y-173771000D02*
X142104000Y-174971000D01*
G75*
G02*
X142054000Y-175021000I-50000J0D01*
G01*
X141154000Y-175021000D01*
G75*
G02*
X141104000Y-174971000I0J50000D01*
G01*
X141104000Y-173771000D01*
G75*
G02*
X141154000Y-173721000I50000J0D01*
G01*
X142054000Y-173721000D01*
G75*
G02*
X142104000Y-173771000I0J-50000D01*
G01*
G37*
G04 #@! TD*
G04 #@! TO.C,D3*
G36*
G01*
X138804000Y-154721000D02*
X138804000Y-155921000D01*
G75*
G02*
X138754000Y-155971000I-50000J0D01*
G01*
X137854000Y-155971000D01*
G75*
G02*
X137804000Y-155921000I0J50000D01*
G01*
X137804000Y-154721000D01*
G75*
G02*
X137854000Y-154671000I50000J0D01*
G01*
X138754000Y-154671000D01*
G75*
G02*
X138804000Y-154721000I0J-50000D01*
G01*
G37*
G36*
G01*
X142104000Y-154721000D02*
X142104000Y-155921000D01*
G75*
G02*
X142054000Y-155971000I-50000J0D01*
G01*
X141154000Y-155971000D01*
G75*
G02*
X141104000Y-155921000I0J50000D01*
G01*
X141104000Y-154721000D01*
G75*
G02*
X141154000Y-154671000I50000J0D01*
G01*
X142054000Y-154671000D01*
G75*
G02*
X142104000Y-154721000I0J-50000D01*
G01*
G37*
G04 #@! TD*
G04 #@! TO.C,D2*
G36*
G01*
X119754000Y-173771000D02*
X119754000Y-174971000D01*
G75*
G02*
X119704000Y-175021000I-50000J0D01*
G01*
X118804000Y-175021000D01*
G75*
G02*
X118754000Y-174971000I0J50000D01*
G01*
X118754000Y-173771000D01*
G75*
G02*
X118804000Y-173721000I50000J0D01*
G01*
X119704000Y-173721000D01*
G75*
G02*
X119754000Y-173771000I0J-50000D01*
G01*
G37*
G36*
G01*
X123054000Y-173771000D02*
X123054000Y-174971000D01*
G75*
G02*
X123004000Y-175021000I-50000J0D01*
G01*
X122104000Y-175021000D01*
G75*
G02*
X122054000Y-174971000I0J50000D01*
G01*
X122054000Y-173771000D01*
G75*
G02*
X122104000Y-173721000I50000J0D01*
G01*
X123004000Y-173721000D01*
G75*
G02*
X123054000Y-173771000I0J-50000D01*
G01*
G37*
G04 #@! TD*
G04 #@! TO.C,D1*
G36*
G01*
X119754000Y-154721000D02*
X119754000Y-155921000D01*
G75*
G02*
X119704000Y-155971000I-50000J0D01*
G01*
X118804000Y-155971000D01*
G75*
G02*
X118754000Y-155921000I0J50000D01*
G01*
X118754000Y-154721000D01*
G75*
G02*
X118804000Y-154671000I50000J0D01*
G01*
X119704000Y-154671000D01*
G75*
G02*
X119754000Y-154721000I0J-50000D01*
G01*
G37*
G36*
G01*
X123054000Y-154721000D02*
X123054000Y-155921000D01*
G75*
G02*
X123004000Y-155971000I-50000J0D01*
G01*
X122104000Y-155971000D01*
G75*
G02*
X122054000Y-155921000I0J50000D01*
G01*
X122054000Y-154721000D01*
G75*
G02*
X122104000Y-154671000I50000J0D01*
G01*
X123004000Y-154671000D01*
G75*
G02*
X123054000Y-154721000I0J-50000D01*
G01*
G37*
G04 #@! TD*
G04 #@! TO.C,C7*
G36*
G01*
X83674000Y-140361750D02*
X83674000Y-141324250D01*
G75*
G02*
X83405250Y-141593000I-268750J0D01*
G01*
X82867750Y-141593000D01*
G75*
G02*
X82599000Y-141324250I0J268750D01*
G01*
X82599000Y-140361750D01*
G75*
G02*
X82867750Y-140093000I268750J0D01*
G01*
X83405250Y-140093000D01*
G75*
G02*
X83674000Y-140361750I0J-268750D01*
G01*
G37*
G36*
G01*
X85549000Y-140361750D02*
X85549000Y-141324250D01*
G75*
G02*
X85280250Y-141593000I-268750J0D01*
G01*
X84742750Y-141593000D01*
G75*
G02*
X84474000Y-141324250I0J268750D01*
G01*
X84474000Y-140361750D01*
G75*
G02*
X84742750Y-140093000I268750J0D01*
G01*
X85280250Y-140093000D01*
G75*
G02*
X85549000Y-140361750I0J-268750D01*
G01*
G37*
G04 #@! TD*
G04 #@! TO.C,C6*
G36*
G01*
X76092000Y-141324250D02*
X76092000Y-140361750D01*
G75*
G02*
X76360750Y-140093000I268750J0D01*
G01*
X76898250Y-140093000D01*
G75*
G02*
X77167000Y-140361750I0J-268750D01*
G01*
X77167000Y-141324250D01*
G75*
G02*
X76898250Y-141593000I-268750J0D01*
G01*
X76360750Y-141593000D01*
G75*
G02*
X76092000Y-141324250I0J268750D01*
G01*
G37*
G36*
G01*
X74217000Y-141324250D02*
X74217000Y-140361750D01*
G75*
G02*
X74485750Y-140093000I268750J0D01*
G01*
X75023250Y-140093000D01*
G75*
G02*
X75292000Y-140361750I0J-268750D01*
G01*
X75292000Y-141324250D01*
G75*
G02*
X75023250Y-141593000I-268750J0D01*
G01*
X74485750Y-141593000D01*
G75*
G02*
X74217000Y-141324250I0J268750D01*
G01*
G37*
G04 #@! TD*
G04 #@! TO.C,C5*
G36*
G01*
X69114750Y-156737000D02*
X70077250Y-156737000D01*
G75*
G02*
X70346000Y-157005750I0J-268750D01*
G01*
X70346000Y-157543250D01*
G75*
G02*
X70077250Y-157812000I-268750J0D01*
G01*
X69114750Y-157812000D01*
G75*
G02*
X68846000Y-157543250I0J268750D01*
G01*
X68846000Y-157005750D01*
G75*
G02*
X69114750Y-156737000I268750J0D01*
G01*
G37*
G36*
G01*
X69114750Y-154862000D02*
X70077250Y-154862000D01*
G75*
G02*
X70346000Y-155130750I0J-268750D01*
G01*
X70346000Y-155668250D01*
G75*
G02*
X70077250Y-155937000I-268750J0D01*
G01*
X69114750Y-155937000D01*
G75*
G02*
X68846000Y-155668250I0J268750D01*
G01*
X68846000Y-155130750D01*
G75*
G02*
X69114750Y-154862000I268750J0D01*
G01*
G37*
G04 #@! TD*
G04 #@! TO.C,C4*
G36*
G01*
X86386750Y-161817000D02*
X87349250Y-161817000D01*
G75*
G02*
X87618000Y-162085750I0J-268750D01*
G01*
X87618000Y-162623250D01*
G75*
G02*
X87349250Y-162892000I-268750J0D01*
G01*
X86386750Y-162892000D01*
G75*
G02*
X86118000Y-162623250I0J268750D01*
G01*
X86118000Y-162085750D01*
G75*
G02*
X86386750Y-161817000I268750J0D01*
G01*
G37*
G36*
G01*
X86386750Y-159942000D02*
X87349250Y-159942000D01*
G75*
G02*
X87618000Y-160210750I0J-268750D01*
G01*
X87618000Y-160748250D01*
G75*
G02*
X87349250Y-161017000I-268750J0D01*
G01*
X86386750Y-161017000D01*
G75*
G02*
X86118000Y-160748250I0J268750D01*
G01*
X86118000Y-160210750D01*
G75*
G02*
X86386750Y-159942000I268750J0D01*
G01*
G37*
G04 #@! TD*
G04 #@! TO.C,C3*
G36*
G01*
X91840000Y-151738250D02*
X91840000Y-150775750D01*
G75*
G02*
X92108750Y-150507000I268750J0D01*
G01*
X92646250Y-150507000D01*
G75*
G02*
X92915000Y-150775750I0J-268750D01*
G01*
X92915000Y-151738250D01*
G75*
G02*
X92646250Y-152007000I-268750J0D01*
G01*
X92108750Y-152007000D01*
G75*
G02*
X91840000Y-151738250I0J268750D01*
G01*
G37*
G36*
G01*
X89965000Y-151738250D02*
X89965000Y-150775750D01*
G75*
G02*
X90233750Y-150507000I268750J0D01*
G01*
X90771250Y-150507000D01*
G75*
G02*
X91040000Y-150775750I0J-268750D01*
G01*
X91040000Y-151738250D01*
G75*
G02*
X90771250Y-152007000I-268750J0D01*
G01*
X90233750Y-152007000D01*
G75*
G02*
X89965000Y-151738250I0J268750D01*
G01*
G37*
G04 #@! TD*
G04 #@! TO.C,C2*
G36*
G01*
X77443250Y-171431000D02*
X76480750Y-171431000D01*
G75*
G02*
X76212000Y-171162250I0J268750D01*
G01*
X76212000Y-170624750D01*
G75*
G02*
X76480750Y-170356000I268750J0D01*
G01*
X77443250Y-170356000D01*
G75*
G02*
X77712000Y-170624750I0J-268750D01*
G01*
X77712000Y-171162250D01*
G75*
G02*
X77443250Y-171431000I-268750J0D01*
G01*
G37*
G36*
G01*
X77443250Y-173306000D02*
X76480750Y-173306000D01*
G75*
G02*
X76212000Y-173037250I0J268750D01*
G01*
X76212000Y-172499750D01*
G75*
G02*
X76480750Y-172231000I268750J0D01*
G01*
X77443250Y-172231000D01*
G75*
G02*
X77712000Y-172499750I0J-268750D01*
G01*
X77712000Y-173037250D01*
G75*
G02*
X77443250Y-173306000I-268750J0D01*
G01*
G37*
G04 #@! TD*
G04 #@! TO.C,C1*
G36*
G01*
X69114750Y-172231000D02*
X70077250Y-172231000D01*
G75*
G02*
X70346000Y-172499750I0J-268750D01*
G01*
X70346000Y-173037250D01*
G75*
G02*
X70077250Y-173306000I-268750J0D01*
G01*
X69114750Y-173306000D01*
G75*
G02*
X68846000Y-173037250I0J268750D01*
G01*
X68846000Y-172499750D01*
G75*
G02*
X69114750Y-172231000I268750J0D01*
G01*
G37*
G36*
G01*
X69114750Y-170356000D02*
X70077250Y-170356000D01*
G75*
G02*
X70346000Y-170624750I0J-268750D01*
G01*
X70346000Y-171162250D01*
G75*
G02*
X70077250Y-171431000I-268750J0D01*
G01*
X69114750Y-171431000D01*
G75*
G02*
X68846000Y-171162250I0J268750D01*
G01*
X68846000Y-170624750D01*
G75*
G02*
X69114750Y-170356000I268750J0D01*
G01*
G37*
G04 #@! TD*
M02*
