M48
; DRILL file {KiCad (5.99.0-1822-g1792479ca)} date 06/16/20 18:02:13
; FORMAT={-:-/ absolute / inch / decimal}
; #@! TF.CreationDate,2020-06-16T18:02:13+08:00
; #@! TF.GenerationSoftware,Kicad,Pcbnew,(5.99.0-1822-g1792479ca)
; #@! TF.FileFunction,Plated,1,2,PTH
FMAT,2
INCH
T1C0.0157
T2C0.0276
T3C0.0579
%
G90
G05
T1
X2.65Y-6.09
X2.865Y-5.505
X3.325Y-5.425
X3.3612Y-6.3596
X3.52Y-5.78
X3.52Y-6.01
T3
X5.08Y-6.435
X5.1316Y-6.3775
X5.3284Y-6.3578
X5.33Y-6.335
X4.33Y-6.435
X4.3816Y-6.3775
X4.5784Y-6.3578
X4.58Y-6.335
X4.33Y-5.685
X4.3816Y-5.6275
X4.5784Y-5.6078
X4.58Y-5.585
X5.08Y-5.685
X5.1316Y-5.6275
X5.3284Y-5.6078
X5.33Y-5.585
T2
G00X3.7178Y-5.3549
M15
G01X3.7178Y-5.4021
M16
G05
G00X3.7178Y-5.532
M15
G01X3.7178Y-5.5793
M16
G05
G00X4.0052Y-5.3549
M15
G01X4.0052Y-5.4021
M16
G05
G00X4.0052Y-5.532
M15
G01X4.0052Y-5.5793
M16
G05
T0
M30
